<svg xmlns="http://www.w3.org/2000/svg" width="1000" height="560" viewBox="0 0 1000 560">
<rect width="100%" height="100%" fill="white"/>
<text x="500" y="28" text-anchor="middle" font-family="Arial" font-size="20" font-weight="bold">Mean Kindergarten ATLAS Scores by School and Wave</text>
<text x="500" y="52" text-anchor="middle" font-family="Arial" font-size="13">JMTES received G.R.O.W; JES is the control school</text>
<text x="285.0" y="55" text-anchor="middle" font-family="Arial" font-size="16" font-weight="bold">ELA</text>
<line x1="70.0" y1="490" x2="500.0" y2="490" stroke="black"/>
<line x1="70.0" y1="70" x2="70.0" y2="490" stroke="black"/>
<line x1="66.0" y1="490.0" x2="70.0" y2="490.0" stroke="black"/>
<line x1="70.0" y1="490.0" x2="500.0" y2="490.0" stroke="#e6e6e6"/>
<text x="62.0" y="494.0" text-anchor="end" font-family="Arial" font-size="11">1040</text>
<line x1="66.0" y1="406.0" x2="70.0" y2="406.0" stroke="black"/>
<line x1="70.0" y1="406.0" x2="500.0" y2="406.0" stroke="#e6e6e6"/>
<text x="62.0" y="410.0" text-anchor="end" font-family="Arial" font-size="11">1045</text>
<line x1="66.0" y1="322.0" x2="70.0" y2="322.0" stroke="black"/>
<line x1="70.0" y1="322.0" x2="500.0" y2="322.0" stroke="#e6e6e6"/>
<text x="62.0" y="326.0" text-anchor="end" font-family="Arial" font-size="11">1050</text>
<line x1="66.0" y1="238.0" x2="70.0" y2="238.0" stroke="black"/>
<line x1="70.0" y1="238.0" x2="500.0" y2="238.0" stroke="#e6e6e6"/>
<text x="62.0" y="242.0" text-anchor="end" font-family="Arial" font-size="11">1055</text>
<line x1="66.0" y1="154.0" x2="70.0" y2="154.0" stroke="black"/>
<line x1="70.0" y1="154.0" x2="500.0" y2="154.0" stroke="#e6e6e6"/>
<text x="62.0" y="158.0" text-anchor="end" font-family="Arial" font-size="11">1060</text>
<line x1="66.0" y1="70.0" x2="70.0" y2="70.0" stroke="black"/>
<line x1="70.0" y1="70.0" x2="500.0" y2="70.0" stroke="#e6e6e6"/>
<text x="62.0" y="74.0" text-anchor="end" font-family="Arial" font-size="11">1065</text>
<line x1="70.0" y1="490" x2="70.0" y2="494" stroke="black"/>
<text x="70.0" y="510" text-anchor="middle" font-family="Arial" font-size="11">Summer&#10;2025</text>
<line x1="285.0" y1="490" x2="285.0" y2="494" stroke="black"/>
<text x="285.0" y="510" text-anchor="middle" font-family="Arial" font-size="11">Winter&#10;2025</text>
<line x1="500.0" y1="490" x2="500.0" y2="494" stroke="black"/>
<text x="500.0" y="510" text-anchor="middle" font-family="Arial" font-size="11">Summer&#10;2026</text>
<path d="M 70.0 273.1 L 285.0 395.2 L 500.0 192.0" fill="none" stroke="#1f77b4" stroke-width="3"/>
<line x1="70.0" y1="356.8936980371433" x2="70.0" y2="189.36084741739944" stroke="#1f77b4" stroke-width="1.5"/>
<circle cx="70.0" cy="273.12727272727136" r="5" fill="#1f77b4"/>
<text x="70.0" y="264.12727272727136" text-anchor="middle" font-family="Arial" font-size="10" fill="#1f77b4">1052.9</text>
<line x1="285.0" y1="458.1127876349436" x2="285.0" y2="332.3714228913721" stroke="#1f77b4" stroke-width="1.5"/>
<circle cx="285.0" cy="395.24210526315784" r="5" fill="#1f77b4"/>
<text x="285.0" y="386.24210526315784" text-anchor="middle" font-family="Arial" font-size="10" fill="#1f77b4">1045.6</text>
<line x1="500.0" y1="238.08901220759765" x2="500.0" y2="145.91098779240417" stroke="#1f77b4" stroke-width="1.5"/>
<circle cx="500.0" cy="192.0000000000009" r="5" fill="#1f77b4"/>
<text x="500.0" y="183.0000000000009" text-anchor="middle" font-family="Arial" font-size="10" fill="#1f77b4">1057.7</text>
<path d="M 285.0 322.6 L 500.0 164.6" fill="none" stroke="#d62728" stroke-width="3"/>
<line x1="285.0" y1="396.00817049276264" x2="285.0" y2="249.2841371995415" stroke="#d62728" stroke-width="1.5"/>
<circle cx="285.0" cy="322.64615384615206" r="5" fill="#d62728"/>
<text x="285.0" y="313.64615384615206" text-anchor="middle" font-family="Arial" font-size="10" fill="#d62728">1050.0</text>
<line x1="500.0" y1="219.25927295604617" x2="500.0" y2="109.89628259950712" stroke="#d62728" stroke-width="1.5"/>
<circle cx="500.0" cy="164.57777777777665" r="5" fill="#d62728"/>
<text x="500.0" y="155.57777777777665" text-anchor="middle" font-family="Arial" font-size="10" fill="#d62728">1059.4</text>
<text x="755.0" y="55" text-anchor="middle" font-family="Arial" font-size="16" font-weight="bold">Math</text>
<line x1="540.0" y1="490" x2="970.0" y2="490" stroke="black"/>
<line x1="540.0" y1="70" x2="540.0" y2="490" stroke="black"/>
<line x1="536.0" y1="490.0" x2="540.0" y2="490.0" stroke="black"/>
<line x1="540.0" y1="490.0" x2="970.0" y2="490.0" stroke="#e6e6e6"/>
<text x="532.0" y="494.0" text-anchor="end" font-family="Arial" font-size="11">1040</text>
<line x1="536.0" y1="406.0" x2="540.0" y2="406.0" stroke="black"/>
<line x1="540.0" y1="406.0" x2="970.0" y2="406.0" stroke="#e6e6e6"/>
<text x="532.0" y="410.0" text-anchor="end" font-family="Arial" font-size="11">1045</text>
<line x1="536.0" y1="322.0" x2="540.0" y2="322.0" stroke="black"/>
<line x1="540.0" y1="322.0" x2="970.0" y2="322.0" stroke="#e6e6e6"/>
<text x="532.0" y="326.0" text-anchor="end" font-family="Arial" font-size="11">1050</text>
<line x1="536.0" y1="238.0" x2="540.0" y2="238.0" stroke="black"/>
<line x1="540.0" y1="238.0" x2="970.0" y2="238.0" stroke="#e6e6e6"/>
<text x="532.0" y="242.0" text-anchor="end" font-family="Arial" font-size="11">1055</text>
<line x1="536.0" y1="154.0" x2="540.0" y2="154.0" stroke="black"/>
<line x1="540.0" y1="154.0" x2="970.0" y2="154.0" stroke="#e6e6e6"/>
<text x="532.0" y="158.0" text-anchor="end" font-family="Arial" font-size="11">1060</text>
<line x1="536.0" y1="70.0" x2="540.0" y2="70.0" stroke="black"/>
<line x1="540.0" y1="70.0" x2="970.0" y2="70.0" stroke="#e6e6e6"/>
<text x="532.0" y="74.0" text-anchor="end" font-family="Arial" font-size="11">1065</text>
<line x1="540.0" y1="490" x2="540.0" y2="494" stroke="black"/>
<text x="540.0" y="510" text-anchor="middle" font-family="Arial" font-size="11">Summer&#10;2025</text>
<line x1="755.0" y1="490" x2="755.0" y2="494" stroke="black"/>
<text x="755.0" y="510" text-anchor="middle" font-family="Arial" font-size="11">Winter&#10;2025</text>
<line x1="970.0" y1="490" x2="970.0" y2="494" stroke="black"/>
<text x="970.0" y="510" text-anchor="middle" font-family="Arial" font-size="11">Summer&#10;2026</text>
<path d="M 540.0 292.5 L 755.0 337.7 L 970.0 203.6" fill="none" stroke="#1f77b4" stroke-width="3"/>
<line x1="540.0" y1="380.35919178367186" x2="540.0" y2="204.6823176502894" stroke="#1f77b4" stroke-width="1.5"/>
<circle cx="540.0" cy="292.5207547169806" r="5" fill="#1f77b4"/>
<text x="540.0" y="283.5207547169806" text-anchor="middle" font-family="Arial" font-size="10" fill="#1f77b4">1051.8</text>
<line x1="755.0" y1="392.3267938124018" x2="755.0" y2="283.1542872686796" stroke="#1f77b4" stroke-width="1.5"/>
<circle cx="755.0" cy="337.7405405405407" r="5" fill="#1f77b4"/>
<text x="755.0" y="328.7405405405407" text-anchor="middle" font-family="Arial" font-size="10" fill="#1f77b4">1049.1</text>
<line x1="970.0" y1="259.120840809772" x2="970.0" y2="148.07915919022832" stroke="#1f77b4" stroke-width="1.5"/>
<circle cx="970.0" cy="203.6000000000002" r="5" fill="#1f77b4"/>
<text x="970.0" y="194.6000000000002" text-anchor="middle" font-family="Arial" font-size="10" fill="#1f77b4">1057.0</text>
<path d="M 755.0 384.4 L 970.0 187.3" fill="none" stroke="#d62728" stroke-width="3"/>
<line x1="755.0" y1="446.73036998909885" x2="755.0" y2="321.977322318597" stroke="#d62728" stroke-width="1.5"/>
<circle cx="755.0" cy="384.35384615384794" r="5" fill="#d62728"/>
<text x="755.0" y="375.35384615384794" text-anchor="middle" font-family="Arial" font-size="10" fill="#d62728">1046.3</text>
<line x1="970.0" y1="262.3676573230638" x2="970.0" y2="112.21012045471548" stroke="#d62728" stroke-width="1.5"/>
<circle cx="970.0" cy="187.28888888888963" r="5" fill="#d62728"/>
<text x="970.0" y="178.28888888888963" text-anchor="middle" font-family="Arial" font-size="10" fill="#d62728">1058.0</text>
<circle cx="430" cy="525" r="5" fill="#1f77b4"/><text x="442" y="529" font-family="Arial" font-size="13">JES control</text>
<circle cx="550" cy="525" r="5" fill="#d62728"/><text x="562" y="529" font-family="Arial" font-size="13">JMTES treatment</text>
</svg>