<svg xmlns="http://www.w3.org/2000/svg" width="900" height="420" viewBox="0 0 900 420">
<rect width="100%" height="100%" fill="white"/>
<text x="450.0" y="25" text-anchor="middle" font-family="Arial" font-size="18" font-weight="bold">Grade 3 ATLAS Mean Scores by School and Wave</text>
<text x="206.66666666666669" y="48" text-anchor="middle" font-family="Arial" font-size="14">ELA</text>
<rect x="80.0" y="55" width="238.33333333333334" height="290" fill="none" stroke="#ccc"/>
<line x1="80.0" x2="318.33333333333337" y1="345.0" y2="345.0" stroke="#eee"/>
<text x="72.0" y="349.0" text-anchor="end" font-family="Arial" font-size="11">1020</text>
<line x1="80.0" x2="318.33333333333337" y1="272.5" y2="272.5" stroke="#eee"/>
<text x="72.0" y="276.5" text-anchor="end" font-family="Arial" font-size="11">1030</text>
<line x1="80.0" x2="318.33333333333337" y1="200.0" y2="200.0" stroke="#eee"/>
<text x="72.0" y="204.0" text-anchor="end" font-family="Arial" font-size="11">1040</text>
<line x1="80.0" x2="318.33333333333337" y1="127.5" y2="127.5" stroke="#eee"/>
<text x="72.0" y="131.5" text-anchor="end" font-family="Arial" font-size="11">1050</text>
<line x1="80.0" x2="318.33333333333337" y1="55.0" y2="55.0" stroke="#eee"/>
<text x="72.0" y="59.0" text-anchor="end" font-family="Arial" font-size="11">1060</text>
<text x="120.0" y="363" text-anchor="middle" font-family="Arial" font-size="10">Summer 2025</text>
<text x="172.77777777777777" y="363" text-anchor="middle" font-family="Arial" font-size="10">Fall 2025</text>
<text x="225.55555555555554" y="363" text-anchor="middle" font-family="Arial" font-size="10">Winter 2025</text>
<text x="278.33333333333337" y="363" text-anchor="middle" font-family="Arial" font-size="10">Summer 2026</text>
<polyline points="120.0,170.1 225.6,205.9 278.3,186.6" fill="none" stroke="#1f77b4" stroke-width="2"/>
<circle cx="120.0" cy="170.1" r="4" fill="#1f77b4"/><text x="120.0" y="162.1" text-anchor="middle" font-family="Arial" font-size="10">1044.1</text>
<circle cx="225.6" cy="205.9" r="4" fill="#1f77b4"/><text x="225.6" y="197.9" text-anchor="middle" font-family="Arial" font-size="10">1039.2</text>
<circle cx="278.3" cy="186.6" r="4" fill="#1f77b4"/><text x="278.3" y="178.6" text-anchor="middle" font-family="Arial" font-size="10">1041.8</text>
<polyline points="120.0,152.3 172.8,187.0 225.6,148.0 278.3,123.1" fill="none" stroke="#d62728" stroke-width="2"/>
<circle cx="120.0" cy="152.3" r="4" fill="#d62728"/><text x="120.0" y="144.3" text-anchor="middle" font-family="Arial" font-size="10">1046.6</text>
<circle cx="172.8" cy="187.0" r="4" fill="#d62728"/><text x="172.8" y="179.0" text-anchor="middle" font-family="Arial" font-size="10">1041.8</text>
<circle cx="225.6" cy="148.0" r="4" fill="#d62728"/><text x="225.6" y="140.0" text-anchor="middle" font-family="Arial" font-size="10">1047.2</text>
<circle cx="278.3" cy="123.1" r="4" fill="#d62728"/><text x="278.3" y="115.1" text-anchor="middle" font-family="Arial" font-size="10">1050.6</text>
<text x="460.00000000000006" y="48" text-anchor="middle" font-family="Arial" font-size="14">Math</text>
<rect x="333.33333333333337" y="55" width="238.33333333333334" height="290" fill="none" stroke="#ccc"/>
<line x1="333.33333333333337" x2="571.6666666666667" y1="345.0" y2="345.0" stroke="#eee"/>
<line x1="333.33333333333337" x2="571.6666666666667" y1="272.5" y2="272.5" stroke="#eee"/>
<line x1="333.33333333333337" x2="571.6666666666667" y1="200.0" y2="200.0" stroke="#eee"/>
<line x1="333.33333333333337" x2="571.6666666666667" y1="127.5" y2="127.5" stroke="#eee"/>
<line x1="333.33333333333337" x2="571.6666666666667" y1="55.0" y2="55.0" stroke="#eee"/>
<text x="373.33333333333337" y="363" text-anchor="middle" font-family="Arial" font-size="10">Summer 2025</text>
<text x="426.11111111111114" y="363" text-anchor="middle" font-family="Arial" font-size="10">Fall 2025</text>
<text x="478.8888888888889" y="363" text-anchor="middle" font-family="Arial" font-size="10">Winter 2025</text>
<text x="531.6666666666667" y="363" text-anchor="middle" font-family="Arial" font-size="10">Summer 2026</text>
<polyline points="373.3,147.8 426.1,263.9 478.9,243.1 531.7,189.3" fill="none" stroke="#1f77b4" stroke-width="2"/>
<circle cx="373.3" cy="147.8" r="4" fill="#1f77b4"/><text x="373.3" y="139.8" text-anchor="middle" font-family="Arial" font-size="10">1047.2</text>
<circle cx="426.1" cy="263.9" r="4" fill="#1f77b4"/><text x="426.1" y="255.9" text-anchor="middle" font-family="Arial" font-size="10">1031.2</text>
<circle cx="478.9" cy="243.1" r="4" fill="#1f77b4"/><text x="478.9" y="235.1" text-anchor="middle" font-family="Arial" font-size="10">1034.1</text>
<circle cx="531.7" cy="189.3" r="4" fill="#1f77b4"/><text x="531.7" y="181.3" text-anchor="middle" font-family="Arial" font-size="10">1041.5</text>
<polyline points="373.3,144.4 426.1,274.3 478.9,205.5 531.7,142.3" fill="none" stroke="#d62728" stroke-width="2"/>
<circle cx="373.3" cy="144.4" r="4" fill="#d62728"/><text x="373.3" y="136.4" text-anchor="middle" font-family="Arial" font-size="10">1047.7</text>
<circle cx="426.1" cy="274.3" r="4" fill="#d62728"/><text x="426.1" y="266.3" text-anchor="middle" font-family="Arial" font-size="10">1029.8</text>
<circle cx="478.9" cy="205.5" r="4" fill="#d62728"/><text x="478.9" y="197.5" text-anchor="middle" font-family="Arial" font-size="10">1039.2</text>
<circle cx="531.7" cy="142.3" r="4" fill="#d62728"/><text x="531.7" y="134.3" text-anchor="middle" font-family="Arial" font-size="10">1048.0</text>
<text x="713.3333333333334" y="48" text-anchor="middle" font-family="Arial" font-size="14">Science</text>
<rect x="586.6666666666667" y="55" width="238.33333333333334" height="290" fill="none" stroke="#ccc"/>
<line x1="586.6666666666667" x2="825.0000000000001" y1="345.0" y2="345.0" stroke="#eee"/>
<line x1="586.6666666666667" x2="825.0000000000001" y1="272.5" y2="272.5" stroke="#eee"/>
<line x1="586.6666666666667" x2="825.0000000000001" y1="200.0" y2="200.0" stroke="#eee"/>
<line x1="586.6666666666667" x2="825.0000000000001" y1="127.5" y2="127.5" stroke="#eee"/>
<line x1="586.6666666666667" x2="825.0000000000001" y1="55.0" y2="55.0" stroke="#eee"/>
<text x="626.6666666666667" y="363" text-anchor="middle" font-family="Arial" font-size="10">Summer 2025</text>
<text x="679.4444444444446" y="363" text-anchor="middle" font-family="Arial" font-size="10">Fall 2025</text>
<text x="732.2222222222223" y="363" text-anchor="middle" font-family="Arial" font-size="10">Winter 2025</text>
<text x="785.0000000000001" y="363" text-anchor="middle" font-family="Arial" font-size="10">Summer 2026</text>
<polyline points="732.2,224.8 785.0,171.1" fill="none" stroke="#1f77b4" stroke-width="2"/>
<circle cx="732.2" cy="224.8" r="4" fill="#1f77b4"/><text x="732.2" y="216.8" text-anchor="middle" font-family="Arial" font-size="10">1036.6</text>
<circle cx="785.0" cy="171.1" r="4" fill="#1f77b4"/><text x="785.0" y="163.1" text-anchor="middle" font-family="Arial" font-size="10">1044.0</text>
<polyline points="679.4,188.0 732.2,147.1 785.0,107.0" fill="none" stroke="#d62728" stroke-width="2"/>
<circle cx="679.4" cy="188.0" r="4" fill="#d62728"/><text x="679.4" y="180.0" text-anchor="middle" font-family="Arial" font-size="10">1041.7</text>
<circle cx="732.2" cy="147.1" r="4" fill="#d62728"/><text x="732.2" y="139.1" text-anchor="middle" font-family="Arial" font-size="10">1047.3</text>
<circle cx="785.0" cy="107.0" r="4" fill="#d62728"/><text x="785.0" y="99.0" text-anchor="middle" font-family="Arial" font-size="10">1052.8</text>
<rect x="720" y="365" width="140" height="40" fill="white" stroke="#ddd"/>
<line x1="735" x2="755" y1="378" y2="378" stroke="#1f77b4" stroke-width="2"/><text x="762" y="382" font-family="Arial" font-size="12">JES</text>
<line x1="735" x2="755" y1="396" y2="396" stroke="#d62728" stroke-width="2"/><text x="762" y="400" font-family="Arial" font-size="12">JMTES</text>
</svg>