<svg xmlns="http://www.w3.org/2000/svg" width="900" height="420" viewBox="0 0 900 420">
<rect width="100%" height="100%" fill="white"/>
<text x="450.0" y="25" text-anchor="middle" font-family="Arial" font-size="18" font-weight="bold">Grade 4 ATLAS Mean Scores by School and Wave</text>
<text x="206.66666666666669" y="48" text-anchor="middle" font-family="Arial" font-size="14">ELA</text>
<rect x="80.0" y="55" width="238.33333333333334" height="290" fill="none" stroke="#ccc"/>
<line x1="80.0" x2="318.33333333333337" y1="345.0" y2="345.0" stroke="#eee"/>
<text x="72.0" y="349.0" text-anchor="end" font-family="Arial" font-size="11">1030</text>
<line x1="80.0" x2="318.33333333333337" y1="272.5" y2="272.5" stroke="#eee"/>
<text x="72.0" y="276.5" text-anchor="end" font-family="Arial" font-size="11">1038</text>
<line x1="80.0" x2="318.33333333333337" y1="200.0" y2="200.0" stroke="#eee"/>
<text x="72.0" y="204.0" text-anchor="end" font-family="Arial" font-size="11">1045</text>
<line x1="80.0" x2="318.33333333333337" y1="127.5" y2="127.5" stroke="#eee"/>
<text x="72.0" y="131.5" text-anchor="end" font-family="Arial" font-size="11">1052</text>
<line x1="80.0" x2="318.33333333333337" y1="55.0" y2="55.0" stroke="#eee"/>
<text x="72.0" y="59.0" text-anchor="end" font-family="Arial" font-size="11">1060</text>
<text x="115.0" y="363" text-anchor="middle" font-family="Arial" font-size="9">Summer 2025</text>
<text x="171.11111111111111" y="363" text-anchor="middle" font-family="Arial" font-size="9">Fall 2025</text>
<text x="227.22222222222223" y="363" text-anchor="middle" font-family="Arial" font-size="9">Winter 2025</text>
<text x="283.33333333333337" y="363" text-anchor="middle" font-family="Arial" font-size="9">Summer 2026</text>
<polyline points="115.0,233.3 227.2,247.0 283.3,208.9" fill="none" stroke="#1f77b4" stroke-width="2"/>
<circle cx="115.0" cy="233.3" r="4" fill="#1f77b4"/><text x="115.0" y="225.3" text-anchor="middle" font-family="Arial" font-size="9">1041.6</text>
<circle cx="227.2" cy="247.0" r="4" fill="#1f77b4"/><text x="227.2" y="239.0" text-anchor="middle" font-family="Arial" font-size="9">1040.1</text>
<circle cx="283.3" cy="208.9" r="4" fill="#1f77b4"/><text x="283.3" y="200.9" text-anchor="middle" font-family="Arial" font-size="9">1044.1</text>
<polyline points="115.0,133.9 171.1,222.3 227.2,153.0 283.3,105.6" fill="none" stroke="#d62728" stroke-width="2"/>
<circle cx="115.0" cy="133.9" r="4" fill="#d62728"/><text x="115.0" y="125.9" text-anchor="middle" font-family="Arial" font-size="9">1051.8</text>
<circle cx="171.1" cy="222.3" r="4" fill="#d62728"/><text x="171.1" y="214.3" text-anchor="middle" font-family="Arial" font-size="9">1042.7</text>
<circle cx="227.2" cy="153.0" r="4" fill="#d62728"/><text x="227.2" y="145.0" text-anchor="middle" font-family="Arial" font-size="9">1049.9</text>
<circle cx="283.3" cy="105.6" r="4" fill="#d62728"/><text x="283.3" y="97.6" text-anchor="middle" font-family="Arial" font-size="9">1054.8</text>
<text x="460.00000000000006" y="48" text-anchor="middle" font-family="Arial" font-size="14">Math</text>
<rect x="333.33333333333337" y="55" width="238.33333333333334" height="290" fill="none" stroke="#ccc"/>
<line x1="333.33333333333337" x2="571.6666666666667" y1="345.0" y2="345.0" stroke="#eee"/>
<line x1="333.33333333333337" x2="571.6666666666667" y1="272.5" y2="272.5" stroke="#eee"/>
<line x1="333.33333333333337" x2="571.6666666666667" y1="200.0" y2="200.0" stroke="#eee"/>
<line x1="333.33333333333337" x2="571.6666666666667" y1="127.5" y2="127.5" stroke="#eee"/>
<line x1="333.33333333333337" x2="571.6666666666667" y1="55.0" y2="55.0" stroke="#eee"/>
<text x="368.33333333333337" y="363" text-anchor="middle" font-family="Arial" font-size="9">Summer 2025</text>
<text x="424.44444444444446" y="363" text-anchor="middle" font-family="Arial" font-size="9">Fall 2025</text>
<text x="480.5555555555556" y="363" text-anchor="middle" font-family="Arial" font-size="9">Winter 2025</text>
<text x="536.6666666666667" y="363" text-anchor="middle" font-family="Arial" font-size="9">Summer 2026</text>
<polyline points="368.3,271.8 424.4,317.1 480.6,305.6 536.7,251.7" fill="none" stroke="#1f77b4" stroke-width="2"/>
<circle cx="368.3" cy="271.8" r="4" fill="#1f77b4"/><text x="368.3" y="263.8" text-anchor="middle" font-family="Arial" font-size="9">1037.6</text>
<circle cx="424.4" cy="317.1" r="4" fill="#1f77b4"/><text x="424.4" y="309.1" text-anchor="middle" font-family="Arial" font-size="9">1032.9</text>
<circle cx="480.6" cy="305.6" r="4" fill="#1f77b4"/><text x="480.6" y="297.6" text-anchor="middle" font-family="Arial" font-size="9">1034.1</text>
<circle cx="536.7" cy="251.7" r="4" fill="#1f77b4"/><text x="536.7" y="243.7" text-anchor="middle" font-family="Arial" font-size="9">1039.7</text>
<polyline points="368.3,190.2 424.4,286.6 480.6,224.2 536.7,127.6" fill="none" stroke="#d62728" stroke-width="2"/>
<circle cx="368.3" cy="190.2" r="4" fill="#d62728"/><text x="368.3" y="182.2" text-anchor="middle" font-family="Arial" font-size="9">1046.0</text>
<circle cx="424.4" cy="286.6" r="4" fill="#d62728"/><text x="424.4" y="278.6" text-anchor="middle" font-family="Arial" font-size="9">1036.0</text>
<circle cx="480.6" cy="224.2" r="4" fill="#d62728"/><text x="480.6" y="216.2" text-anchor="middle" font-family="Arial" font-size="9">1042.5</text>
<circle cx="536.7" cy="127.6" r="4" fill="#d62728"/><text x="536.7" y="119.6" text-anchor="middle" font-family="Arial" font-size="9">1052.5</text>
<text x="713.3333333333334" y="48" text-anchor="middle" font-family="Arial" font-size="14">Science</text>
<rect x="586.6666666666667" y="55" width="238.33333333333334" height="290" fill="none" stroke="#ccc"/>
<line x1="586.6666666666667" x2="825.0000000000001" y1="345.0" y2="345.0" stroke="#eee"/>
<line x1="586.6666666666667" x2="825.0000000000001" y1="272.5" y2="272.5" stroke="#eee"/>
<line x1="586.6666666666667" x2="825.0000000000001" y1="200.0" y2="200.0" stroke="#eee"/>
<line x1="586.6666666666667" x2="825.0000000000001" y1="127.5" y2="127.5" stroke="#eee"/>
<line x1="586.6666666666667" x2="825.0000000000001" y1="55.0" y2="55.0" stroke="#eee"/>
<text x="621.6666666666667" y="363" text-anchor="middle" font-family="Arial" font-size="9">Summer 2025</text>
<text x="677.7777777777778" y="363" text-anchor="middle" font-family="Arial" font-size="9">Fall 2025</text>
<text x="733.8888888888889" y="363" text-anchor="middle" font-family="Arial" font-size="9">Winter 2025</text>
<text x="790.0000000000001" y="363" text-anchor="middle" font-family="Arial" font-size="9">Summer 2026</text>
<polyline points="621.7,211.7 733.9,245.3 790.0,203.8" fill="none" stroke="#1f77b4" stroke-width="2"/>
<circle cx="621.7" cy="211.7" r="4" fill="#1f77b4"/><text x="621.7" y="203.7" text-anchor="middle" font-family="Arial" font-size="9">1043.8</text>
<circle cx="733.9" cy="245.3" r="4" fill="#1f77b4"/><text x="733.9" y="237.3" text-anchor="middle" font-family="Arial" font-size="9">1040.3</text>
<circle cx="790.0" cy="203.8" r="4" fill="#1f77b4"/><text x="790.0" y="195.8" text-anchor="middle" font-family="Arial" font-size="9">1044.6</text>
<polyline points="621.7,98.8 677.8,201.1 733.9,152.1 790.0,115.4" fill="none" stroke="#d62728" stroke-width="2"/>
<circle cx="621.7" cy="98.8" r="4" fill="#d62728"/><text x="621.7" y="90.8" text-anchor="middle" font-family="Arial" font-size="9">1055.5</text>
<circle cx="677.8" cy="201.1" r="4" fill="#d62728"/><text x="677.8" y="193.1" text-anchor="middle" font-family="Arial" font-size="9">1044.9</text>
<circle cx="733.9" cy="152.1" r="4" fill="#d62728"/><text x="733.9" y="144.1" text-anchor="middle" font-family="Arial" font-size="9">1050.0</text>
<circle cx="790.0" cy="115.4" r="4" fill="#d62728"/><text x="790.0" y="107.4" text-anchor="middle" font-family="Arial" font-size="9">1053.8</text>
<rect x="720" y="365" width="140" height="40" fill="white" stroke="#ddd"/>
<line x1="735" x2="755" y1="378" y2="378" stroke="#1f77b4" stroke-width="2"/><text x="762" y="382" font-family="Arial" font-size="12">JES</text>
<line x1="735" x2="755" y1="396" y2="396" stroke="#d62728" stroke-width="2"/><text x="762" y="400" font-family="Arial" font-size="12">JMTES</text>
</svg>
