<svg xmlns="http://www.w3.org/2000/svg" width="900" height="420" viewBox="0 0 900 420">
<rect width="100%" height="100%" fill="white"/>
<text x="450.0" y="25" text-anchor="middle" font-family="Arial" font-size="18" font-weight="bold">Grade 5 ATLAS Mean Scores by School and Wave</text>
<text x="206.66666666666669" y="48" text-anchor="middle" font-family="Arial" font-size="14">ELA</text>
<rect x="80.0" y="55" width="238.33333333333334" height="290" fill="none" stroke="#ccc"/>
<line x1="80.0" x2="318.33333333333337" y1="345.0" y2="345.0" stroke="#eee"/>
<text x="72.0" y="349.0" text-anchor="end" font-family="Arial" font-size="11">1030</text>
<line x1="80.0" x2="318.33333333333337" y1="272.5" y2="272.5" stroke="#eee"/>
<text x="72.0" y="276.5" text-anchor="end" font-family="Arial" font-size="11">1038</text>
<line x1="80.0" x2="318.33333333333337" y1="200.0" y2="200.0" stroke="#eee"/>
<text x="72.0" y="204.0" text-anchor="end" font-family="Arial" font-size="11">1045</text>
<line x1="80.0" x2="318.33333333333337" y1="127.5" y2="127.5" stroke="#eee"/>
<text x="72.0" y="131.5" text-anchor="end" font-family="Arial" font-size="11">1052</text>
<line x1="80.0" x2="318.33333333333337" y1="55.0" y2="55.0" stroke="#eee"/>
<text x="72.0" y="59.0" text-anchor="end" font-family="Arial" font-size="11">1060</text>
<text x="115.0" y="363" text-anchor="middle" font-family="Arial" font-size="9">Summer 2025</text>
<text x="171.11111111111111" y="363" text-anchor="middle" font-family="Arial" font-size="9">Fall 2025</text>
<text x="227.22222222222223" y="363" text-anchor="middle" font-family="Arial" font-size="9">Winter 2025</text>
<text x="283.33333333333337" y="363" text-anchor="middle" font-family="Arial" font-size="9">Summer 2026</text>
<polyline points="115.0,232.3 227.2,234.0 283.3,198.4" fill="none" stroke="#1f77b4" stroke-width="2"/>
<circle cx="115.0" cy="232.3" r="4" fill="#1f77b4"/><text x="115.0" y="224.3" text-anchor="middle" font-family="Arial" font-size="9">1041.7</text>
<circle cx="227.2" cy="234.0" r="4" fill="#1f77b4"/><text x="227.2" y="226.0" text-anchor="middle" font-family="Arial" font-size="9">1041.5</text>
<circle cx="283.3" cy="198.4" r="4" fill="#1f77b4"/><text x="283.3" y="190.4" text-anchor="middle" font-family="Arial" font-size="9">1045.2</text>
<polyline points="115.0,94.8 171.1,193.2 227.2,182.0 283.3,146.1" fill="none" stroke="#d62728" stroke-width="2"/>
<circle cx="115.0" cy="94.8" r="4" fill="#d62728"/><text x="115.0" y="86.8" text-anchor="middle" font-family="Arial" font-size="9">1055.9</text>
<circle cx="171.1" cy="193.2" r="4" fill="#d62728"/><text x="171.1" y="185.2" text-anchor="middle" font-family="Arial" font-size="9">1045.7</text>
<circle cx="227.2" cy="182.0" r="4" fill="#d62728"/><text x="227.2" y="174.0" text-anchor="middle" font-family="Arial" font-size="9">1046.9</text>
<circle cx="283.3" cy="146.1" r="4" fill="#d62728"/><text x="283.3" y="138.1" text-anchor="middle" font-family="Arial" font-size="9">1050.6</text>
<text x="460.00000000000006" y="48" text-anchor="middle" font-family="Arial" font-size="14">Math</text>
<rect x="333.33333333333337" y="55" width="238.33333333333334" height="290" fill="none" stroke="#ccc"/>
<line x1="333.33333333333337" x2="571.6666666666667" y1="345.0" y2="345.0" stroke="#eee"/>
<line x1="333.33333333333337" x2="571.6666666666667" y1="272.5" y2="272.5" stroke="#eee"/>
<line x1="333.33333333333337" x2="571.6666666666667" y1="200.0" y2="200.0" stroke="#eee"/>
<line x1="333.33333333333337" x2="571.6666666666667" y1="127.5" y2="127.5" stroke="#eee"/>
<line x1="333.33333333333337" x2="571.6666666666667" y1="55.0" y2="55.0" stroke="#eee"/>
<text x="368.33333333333337" y="363" text-anchor="middle" font-family="Arial" font-size="9">Summer 2025</text>
<text x="424.44444444444446" y="363" text-anchor="middle" font-family="Arial" font-size="9">Fall 2025</text>
<text x="480.5555555555556" y="363" text-anchor="middle" font-family="Arial" font-size="9">Winter 2025</text>
<text x="536.6666666666667" y="363" text-anchor="middle" font-family="Arial" font-size="9">Summer 2026</text>
<polyline points="368.3,263.5 424.4,275.1 480.6,300.3 536.7,244.7" fill="none" stroke="#1f77b4" stroke-width="2"/>
<circle cx="368.3" cy="263.5" r="4" fill="#1f77b4"/><text x="368.3" y="255.5" text-anchor="middle" font-family="Arial" font-size="9">1038.4</text>
<circle cx="424.4" cy="275.1" r="4" fill="#1f77b4"/><text x="424.4" y="267.1" text-anchor="middle" font-family="Arial" font-size="9">1037.2</text>
<circle cx="480.6" cy="300.3" r="4" fill="#1f77b4"/><text x="480.6" y="292.3" text-anchor="middle" font-family="Arial" font-size="9">1034.6</text>
<circle cx="536.7" cy="244.7" r="4" fill="#1f77b4"/><text x="536.7" y="236.7" text-anchor="middle" font-family="Arial" font-size="9">1040.4</text>
<polyline points="368.3,128.6 424.4,265.0 480.6,215.7 536.7,189.0" fill="none" stroke="#d62728" stroke-width="2"/>
<circle cx="368.3" cy="128.6" r="4" fill="#d62728"/><text x="368.3" y="120.6" text-anchor="middle" font-family="Arial" font-size="9">1052.4</text>
<circle cx="424.4" cy="265.0" r="4" fill="#d62728"/><text x="424.4" y="257.0" text-anchor="middle" font-family="Arial" font-size="9">1038.3</text>
<circle cx="480.6" cy="215.7" r="4" fill="#d62728"/><text x="480.6" y="207.7" text-anchor="middle" font-family="Arial" font-size="9">1043.4</text>
<circle cx="536.7" cy="189.0" r="4" fill="#d62728"/><text x="536.7" y="181.0" text-anchor="middle" font-family="Arial" font-size="9">1046.1</text>
<text x="713.3333333333334" y="48" text-anchor="middle" font-family="Arial" font-size="14">Science</text>
<rect x="586.6666666666667" y="55" width="238.33333333333334" height="290" fill="none" stroke="#ccc"/>
<line x1="586.6666666666667" x2="825.0000000000001" y1="345.0" y2="345.0" stroke="#eee"/>
<line x1="586.6666666666667" x2="825.0000000000001" y1="272.5" y2="272.5" stroke="#eee"/>
<line x1="586.6666666666667" x2="825.0000000000001" y1="200.0" y2="200.0" stroke="#eee"/>
<line x1="586.6666666666667" x2="825.0000000000001" y1="127.5" y2="127.5" stroke="#eee"/>
<line x1="586.6666666666667" x2="825.0000000000001" y1="55.0" y2="55.0" stroke="#eee"/>
<text x="621.6666666666667" y="363" text-anchor="middle" font-family="Arial" font-size="9">Summer 2025</text>
<text x="677.7777777777778" y="363" text-anchor="middle" font-family="Arial" font-size="9">Fall 2025</text>
<text x="733.8888888888889" y="363" text-anchor="middle" font-family="Arial" font-size="9">Winter 2025</text>
<text x="790.0000000000001" y="363" text-anchor="middle" font-family="Arial" font-size="9">Summer 2026</text>
<polyline points="621.7,234.8 733.9,227.8 790.0,223.7" fill="none" stroke="#1f77b4" stroke-width="2"/>
<circle cx="621.7" cy="234.8" r="4" fill="#1f77b4"/><text x="621.7" y="226.8" text-anchor="middle" font-family="Arial" font-size="9">1041.4</text>
<circle cx="733.9" cy="227.8" r="4" fill="#1f77b4"/><text x="733.9" y="219.8" text-anchor="middle" font-family="Arial" font-size="9">1042.1</text>
<circle cx="790.0" cy="223.7" r="4" fill="#1f77b4"/><text x="790.0" y="215.7" text-anchor="middle" font-family="Arial" font-size="9">1042.6</text>
<polyline points="621.7,106.5 677.8,188.7 733.9,166.8 790.0,122.9" fill="none" stroke="#d62728" stroke-width="2"/>
<circle cx="621.7" cy="106.5" r="4" fill="#d62728"/><text x="621.7" y="98.5" text-anchor="middle" font-family="Arial" font-size="9">1054.7</text>
<circle cx="677.8" cy="188.7" r="4" fill="#d62728"/><text x="677.8" y="180.7" text-anchor="middle" font-family="Arial" font-size="9">1046.2</text>
<circle cx="733.9" cy="166.8" r="4" fill="#d62728"/><text x="733.9" y="158.8" text-anchor="middle" font-family="Arial" font-size="9">1048.4</text>
<circle cx="790.0" cy="122.9" r="4" fill="#d62728"/><text x="790.0" y="114.9" text-anchor="middle" font-family="Arial" font-size="9">1053.0</text>
<rect x="720" y="365" width="140" height="40" fill="white" stroke="#ddd"/>
<line x1="735" x2="755" y1="378" y2="378" stroke="#1f77b4" stroke-width="2"/><text x="762" y="382" font-family="Arial" font-size="12">JES</text>
<line x1="735" x2="755" y1="396" y2="396" stroke="#d62728" stroke-width="2"/><text x="762" y="400" font-family="Arial" font-size="12">JMTES</text>
</svg>
