<svg xmlns="http://www.w3.org/2000/svg" width="900" height="420" viewBox="0 0 900 420">
<rect width="100%" height="100%" fill="white"/>
<text x="450.0" y="25" text-anchor="middle" font-family="Arial" font-size="18" font-weight="bold">Grade 2 ATLAS Mean Scores by School and Wave</text>
<text x="270.0" y="48" text-anchor="middle" font-family="Arial" font-size="14">ELA</text>
<rect x="80.0" y="55" width="365.0" height="290" fill="none" stroke="#ccc"/>
<line x1="80.0" x2="445.0" y1="345.0" y2="345.0" stroke="#eee"/>
<text x="72.0" y="349.0" text-anchor="end" font-family="Arial" font-size="11">1040</text>
<line x1="80.0" x2="445.0" y1="272.5" y2="272.5" stroke="#eee"/>
<text x="72.0" y="276.5" text-anchor="end" font-family="Arial" font-size="11">1045</text>
<line x1="80.0" x2="445.0" y1="200.0" y2="200.0" stroke="#eee"/>
<text x="72.0" y="204.0" text-anchor="end" font-family="Arial" font-size="11">1050</text>
<line x1="80.0" x2="445.0" y1="127.5" y2="127.5" stroke="#eee"/>
<text x="72.0" y="131.5" text-anchor="end" font-family="Arial" font-size="11">1055</text>
<line x1="80.0" x2="445.0" y1="55.0" y2="55.0" stroke="#eee"/>
<text x="72.0" y="59.0" text-anchor="end" font-family="Arial" font-size="11">1060</text>
<text x="120.0" y="363" text-anchor="middle" font-family="Arial" font-size="10">Summer 2025</text>
<text x="262.5" y="363" text-anchor="middle" font-family="Arial" font-size="10">Winter 2025</text>
<text x="405.0" y="363" text-anchor="middle" font-family="Arial" font-size="10">Summer 2026</text>
<polyline points="120.0,239.7 262.5,236.8 405.0,190.2" fill="none" stroke="#1f77b4" stroke-width="2"/>
<circle cx="120.0" cy="239.7" r="4" fill="#1f77b4"/><text x="120.0" y="231.7" text-anchor="middle" font-family="Arial" font-size="10">1047.3</text>
<circle cx="262.5" cy="236.8" r="4" fill="#1f77b4"/><text x="262.5" y="228.8" text-anchor="middle" font-family="Arial" font-size="10">1047.5</text>
<circle cx="405.0" cy="190.2" r="4" fill="#1f77b4"/><text x="405.0" y="182.2" text-anchor="middle" font-family="Arial" font-size="10">1050.7</text>
<polyline points="120.0,299.9 262.5,212.5 405.0,155.8" fill="none" stroke="#d62728" stroke-width="2"/>
<circle cx="120.0" cy="299.9" r="4" fill="#d62728"/><text x="120.0" y="291.9" text-anchor="middle" font-family="Arial" font-size="10">1043.1</text>
<circle cx="262.5" cy="212.5" r="4" fill="#d62728"/><text x="262.5" y="204.5" text-anchor="middle" font-family="Arial" font-size="10">1049.1</text>
<circle cx="405.0" cy="155.8" r="4" fill="#d62728"/><text x="405.0" y="147.8" text-anchor="middle" font-family="Arial" font-size="10">1053.0</text>
<text x="650.0" y="48" text-anchor="middle" font-family="Arial" font-size="14">Math</text>
<rect x="460.0" y="55" width="365.0" height="290" fill="none" stroke="#ccc"/>
<line x1="460.0" x2="825.0" y1="345.0" y2="345.0" stroke="#eee"/>
<line x1="460.0" x2="825.0" y1="272.5" y2="272.5" stroke="#eee"/>
<line x1="460.0" x2="825.0" y1="200.0" y2="200.0" stroke="#eee"/>
<line x1="460.0" x2="825.0" y1="127.5" y2="127.5" stroke="#eee"/>
<line x1="460.0" x2="825.0" y1="55.0" y2="55.0" stroke="#eee"/>
<text x="500.0" y="363" text-anchor="middle" font-family="Arial" font-size="10">Summer 2025</text>
<text x="642.5" y="363" text-anchor="middle" font-family="Arial" font-size="10">Winter 2025</text>
<text x="785.0" y="363" text-anchor="middle" font-family="Arial" font-size="10">Summer 2026</text>
<polyline points="500.0,206.5 642.5,277.9 785.0,209.2" fill="none" stroke="#1f77b4" stroke-width="2"/>
<circle cx="500.0" cy="206.5" r="4" fill="#1f77b4"/><text x="500.0" y="198.5" text-anchor="middle" font-family="Arial" font-size="10">1049.6</text>
<circle cx="642.5" cy="277.9" r="4" fill="#1f77b4"/><text x="642.5" y="269.9" text-anchor="middle" font-family="Arial" font-size="10">1044.6</text>
<circle cx="785.0" cy="209.2" r="4" fill="#1f77b4"/><text x="785.0" y="201.2" text-anchor="middle" font-family="Arial" font-size="10">1049.4</text>
<polyline points="500.0,220.9 642.5,262.1 785.0,189.9" fill="none" stroke="#d62728" stroke-width="2"/>
<circle cx="500.0" cy="220.9" r="4" fill="#d62728"/><text x="500.0" y="212.9" text-anchor="middle" font-family="Arial" font-size="10">1048.6</text>
<circle cx="642.5" cy="262.1" r="4" fill="#d62728"/><text x="642.5" y="254.1" text-anchor="middle" font-family="Arial" font-size="10">1045.7</text>
<circle cx="785.0" cy="189.9" r="4" fill="#d62728"/><text x="785.0" y="181.9" text-anchor="middle" font-family="Arial" font-size="10">1050.7</text>
<rect x="720" y="365" width="140" height="40" fill="white" stroke="#ddd"/>
<line x1="735" x2="755" y1="378" y2="378" stroke="#1f77b4" stroke-width="2"/><text x="762" y="382" font-family="Arial" font-size="12">JES</text>
<line x1="735" x2="755" y1="396" y2="396" stroke="#d62728" stroke-width="2"/><text x="762" y="400" font-family="Arial" font-size="12">JMTES</text>
</svg>