<svg xmlns="http://www.w3.org/2000/svg" width="1000" height="560" viewBox="0 0 1000 560">
<rect width="100%" height="100%" fill="white"/>
<text x="500" y="28" text-anchor="middle" font-family="Arial" font-size="20" font-weight="bold">Mean Grade 1 ATLAS Scores by School and Wave</text>
<text x="500" y="52" text-anchor="middle" font-family="Arial" font-size="13">JMTES received G.R.O.W; JES is the control school</text>
<text x="285.0" y="55" text-anchor="middle" font-family="Arial" font-size="16" font-weight="bold">ELA</text>
<line x1="70.0" y1="490" x2="500.0" y2="490" stroke="black"/><line x1="70.0" y1="70" x2="70.0" y2="490" stroke="black"/>
<line x1="66.0" y1="490.0" x2="70.0" y2="490.0" stroke="black"/><line x1="70.0" y1="490.0" x2="500.0" y2="490.0" stroke="#e6e6e6"/><text x="62.0" y="494.0" text-anchor="end" font-family="Arial" font-size="11">1030</text>
<line x1="66.0" y1="430.0" x2="70.0" y2="430.0" stroke="black"/><line x1="70.0" y1="430.0" x2="500.0" y2="430.0" stroke="#e6e6e6"/><text x="62.0" y="434.0" text-anchor="end" font-family="Arial" font-size="11">1035</text>
<line x1="66.0" y1="370.0" x2="70.0" y2="370.0" stroke="black"/><line x1="70.0" y1="370.0" x2="500.0" y2="370.0" stroke="#e6e6e6"/><text x="62.0" y="374.0" text-anchor="end" font-family="Arial" font-size="11">1040</text>
<line x1="66.0" y1="310.0" x2="70.0" y2="310.0" stroke="black"/><line x1="70.0" y1="310.0" x2="500.0" y2="310.0" stroke="#e6e6e6"/><text x="62.0" y="314.0" text-anchor="end" font-family="Arial" font-size="11">1045</text>
<line x1="66.0" y1="250.0" x2="70.0" y2="250.0" stroke="black"/><line x1="70.0" y1="250.0" x2="500.0" y2="250.0" stroke="#e6e6e6"/><text x="62.0" y="254.0" text-anchor="end" font-family="Arial" font-size="11">1050</text>
<line x1="66.0" y1="190.0" x2="70.0" y2="190.0" stroke="black"/><line x1="70.0" y1="190.0" x2="500.0" y2="190.0" stroke="#e6e6e6"/><text x="62.0" y="194.0" text-anchor="end" font-family="Arial" font-size="11">1055</text>
<line x1="66.0" y1="130.0" x2="70.0" y2="130.0" stroke="black"/><line x1="70.0" y1="130.0" x2="500.0" y2="130.0" stroke="#e6e6e6"/><text x="62.0" y="134.0" text-anchor="end" font-family="Arial" font-size="11">1060</text>
<line x1="66.0" y1="70.0" x2="70.0" y2="70.0" stroke="black"/><line x1="70.0" y1="70.0" x2="500.0" y2="70.0" stroke="#e6e6e6"/><text x="62.0" y="74.0" text-anchor="end" font-family="Arial" font-size="11">1065</text>
<line x1="70.0" y1="490" x2="70.0" y2="494" stroke="black"/><text x="70.0" y="510" text-anchor="middle" font-family="Arial" font-size="11">Summer 2025</text>
<line x1="285.0" y1="490" x2="285.0" y2="494" stroke="black"/><text x="285.0" y="510" text-anchor="middle" font-family="Arial" font-size="11">Winter 2025</text>
<line x1="500.0" y1="490" x2="500.0" y2="494" stroke="black"/><text x="500.0" y="510" text-anchor="middle" font-family="Arial" font-size="11">Summer 2026</text>
<path d="M 70.0 394.4 L 285.0 270.8 L 500.0 205.8" fill="none" stroke="#1f77b4" stroke-width="3"/>
<line x1="70.0" y1="454.81410013301684" x2="70.0" y2="333.8917822199237" stroke="#1f77b4" stroke-width="1.5"/><circle cx="70.0" cy="394.35294117647027" r="5" fill="#1f77b4"/><text x="70.0" y="385.35294117647027" text-anchor="middle" font-family="Arial" font-size="10" fill="#1f77b4">1038.0</text>
<line x1="285.0" y1="312.7351431910074" x2="285.0" y2="228.93758408172016" stroke="#1f77b4" stroke-width="1.5"/><circle cx="285.0" cy="270.8363636363638" r="5" fill="#1f77b4"/><text x="285.0" y="261.8363636363638" text-anchor="middle" font-family="Arial" font-size="10" fill="#1f77b4">1048.3</text>
<line x1="500.0" y1="250.19709282954136" x2="500.0" y2="161.44892486957542" stroke="#1f77b4" stroke-width="1.5"/><circle cx="500.0" cy="205.8230088495584" r="5" fill="#1f77b4"/><text x="500.0" y="196.8230088495584" text-anchor="middle" font-family="Arial" font-size="10" fill="#1f77b4">1053.7</text>
<path d="M 70.0 307.1 L 285.0 272.5 L 500.0 162.1" fill="none" stroke="#d62728" stroke-width="3"/>
<line x1="70.0" y1="380.49128917722646" x2="70.0" y2="233.6311598023667" stroke="#d62728" stroke-width="1.5"/><circle cx="70.0" cy="307.0612244897966" r="5" fill="#d62728"/><text x="70.0" y="298.0612244897966" text-anchor="middle" font-family="Arial" font-size="10" fill="#d62728">1045.2</text>
<line x1="285.0" y1="317.0102883895297" x2="285.0" y2="228.0423431894169" stroke="#d62728" stroke-width="1.5"/><circle cx="285.0" cy="272.5263157894733" r="5" fill="#d62728"/><text x="285.0" y="263.5263157894733" text-anchor="middle" font-family="Arial" font-size="10" fill="#d62728">1048.1</text>
<line x1="500.0" y1="198.0364625903112" x2="500.0" y2="126.23472385036621" stroke="#d62728" stroke-width="1.5"/><circle cx="500.0" cy="162.1355932203387" r="5" fill="#d62728"/><text x="500.0" y="153.1355932203387" text-anchor="middle" font-family="Arial" font-size="10" fill="#d62728">1057.3</text>
<text x="755.0" y="55" text-anchor="middle" font-family="Arial" font-size="16" font-weight="bold">Math</text>
<line x1="540.0" y1="490" x2="970.0" y2="490" stroke="black"/><line x1="540.0" y1="70" x2="540.0" y2="490" stroke="black"/>
<line x1="536.0" y1="490.0" x2="540.0" y2="490.0" stroke="black"/><line x1="540.0" y1="490.0" x2="970.0" y2="490.0" stroke="#e6e6e6"/><text x="532.0" y="494.0" text-anchor="end" font-family="Arial" font-size="11">1035</text>
<line x1="536.0" y1="406.0" x2="540.0" y2="406.0" stroke="black"/><line x1="540.0" y1="406.0" x2="970.0" y2="406.0" stroke="#e6e6e6"/><text x="532.0" y="410.0" text-anchor="end" font-family="Arial" font-size="11">1040</text>
<line x1="536.0" y1="322.0" x2="540.0" y2="322.0" stroke="black"/><line x1="540.0" y1="322.0" x2="970.0" y2="322.0" stroke="#e6e6e6"/><text x="532.0" y="326.0" text-anchor="end" font-family="Arial" font-size="11">1045</text>
<line x1="536.0" y1="238.0" x2="540.0" y2="238.0" stroke="black"/><line x1="540.0" y1="238.0" x2="970.0" y2="238.0" stroke="#e6e6e6"/><text x="532.0" y="242.0" text-anchor="end" font-family="Arial" font-size="11">1050</text>
<line x1="536.0" y1="154.0" x2="540.0" y2="154.0" stroke="black"/><line x1="540.0" y1="154.0" x2="970.0" y2="154.0" stroke="#e6e6e6"/><text x="532.0" y="158.0" text-anchor="end" font-family="Arial" font-size="11">1055</text>
<line x1="536.0" y1="70.0" x2="540.0" y2="70.0" stroke="black"/><line x1="540.0" y1="70.0" x2="970.0" y2="70.0" stroke="#e6e6e6"/><text x="532.0" y="74.0" text-anchor="end" font-family="Arial" font-size="11">1060</text>
<line x1="540.0" y1="490" x2="540.0" y2="494" stroke="black"/><text x="540.0" y="510" text-anchor="middle" font-family="Arial" font-size="11">Summer 2025</text>
<line x1="755.0" y1="490" x2="755.0" y2="494" stroke="black"/><text x="755.0" y="510" text-anchor="middle" font-family="Arial" font-size="11">Winter 2025</text>
<line x1="970.0" y1="490" x2="970.0" y2="494" stroke="black"/><text x="970.0" y="510" text-anchor="middle" font-family="Arial" font-size="11">Summer 2026</text>
<path d="M 540.0 202.3 L 755.0 318.2 L 970.0 176.9" fill="none" stroke="#1f77b4" stroke-width="3"/>
<line x1="540.0" y1="269.18121052385436" x2="540.0" y2="135.33643653496546" stroke="#1f77b4" stroke-width="1.5"/><circle cx="540.0" cy="202.25882352940994" r="5" fill="#1f77b4"/><text x="540.0" y="193.25882352940994" text-anchor="middle" font-family="Arial" font-size="10" fill="#1f77b4">1052.1</text>
<line x1="755.0" y1="369.0581452585726" x2="755.0" y2="267.3054911050631" stroke="#1f77b4" stroke-width="1.5"/><circle cx="755.0" cy="318.18181818181785" r="5" fill="#1f77b4"/><text x="755.0" y="309.18181818181785" text-anchor="middle" font-family="Arial" font-size="10" fill="#1f77b4">1045.2</text>
<line x1="970.0" y1="236.41894497039357" x2="970.0" y2="117.48105502960317" stroke="#1f77b4" stroke-width="1.5"/><circle cx="970.0" cy="176.9499999999984" r="5" fill="#1f77b4"/><text x="970.0" y="167.9499999999984" text-anchor="middle" font-family="Arial" font-size="10" fill="#1f77b4">1053.6</text>
<path d="M 540.0 203.4 L 755.0 335.8 L 970.0 200.7" fill="none" stroke="#d62728" stroke-width="3"/>
<line x1="540.0" y1="282.76904143227057" x2="540.0" y2="123.97381571058702" stroke="#d62728" stroke-width="1.5"/><circle cx="540.0" cy="203.3714285714288" r="5" fill="#d62728"/><text x="540.0" y="194.3714285714288" text-anchor="middle" font-family="Arial" font-size="10" fill="#d62728">1052.1</text>
<line x1="755.0" y1="406.1335238128111" x2="755.0" y2="265.46647618719214" stroke="#d62728" stroke-width="1.5"/><circle cx="755.0" cy="335.80000000000166" r="5" fill="#d62728"/><text x="755.0" y="326.80000000000166" text-anchor="middle" font-family="Arial" font-size="10" fill="#d62728">1044.2</text>
<line x1="970.0" y1="267.2723994420945" x2="970.0" y2="134.12421072739693" stroke="#d62728" stroke-width="1.5"/><circle cx="970.0" cy="200.6983050847457" r="5" fill="#d62728"/><text x="970.0" y="191.6983050847457" text-anchor="middle" font-family="Arial" font-size="10" fill="#d62728">1052.2</text>
<circle cx="430" cy="525" r="5" fill="#1f77b4"/><text x="442" y="529" font-family="Arial" font-size="13">JES control</text><circle cx="550" cy="525" r="5" fill="#d62728"/><text x="562" y="529" font-family="Arial" font-size="13">JMTES treatment</text></svg>