<svg xmlns="http://www.w3.org/2000/svg" width="960" height="560" viewBox="0 0 960 560" role="img" aria-label="JMTES Math mean ATLAS scores by grade over time">
<rect width="100%" height="100%" fill="white"/>
<text x="480.0" y="30" text-anchor="middle" font-family="Arial" font-size="22" font-weight="700">JMTES Math ATLAS Mean Scores Over Time</text>
<text x="480.0" y="52" text-anchor="middle" font-family="Arial" font-size="13" fill="#555">Lines show grade-level means for students at Murrell Taylor Elementary (JMTES)</text>
<line x1="80" y1="465.0" x2="730" y2="465.0" stroke="#e6e6e6" stroke-width="1"/>
<text x="70" y="469.0" text-anchor="end" font-family="Arial" font-size="12" fill="#555">1020</text>
<line x1="80" y1="375.0" x2="730" y2="375.0" stroke="#e6e6e6" stroke-width="1"/>
<text x="70" y="379.0" text-anchor="end" font-family="Arial" font-size="12" fill="#555">1030</text>
<line x1="80" y1="285.0" x2="730" y2="285.0" stroke="#e6e6e6" stroke-width="1"/>
<text x="70" y="289.0" text-anchor="end" font-family="Arial" font-size="12" fill="#555">1040</text>
<line x1="80" y1="195.0" x2="730" y2="195.0" stroke="#e6e6e6" stroke-width="1"/>
<text x="70" y="199.0" text-anchor="end" font-family="Arial" font-size="12" fill="#555">1050</text>
<line x1="80" y1="105.0" x2="730" y2="105.0" stroke="#e6e6e6" stroke-width="1"/>
<text x="70" y="109.0" text-anchor="end" font-family="Arial" font-size="12" fill="#555">1060</text>
<line x1="80" y1="60" x2="80" y2="465" stroke="#333"/>
<line x1="80" y1="465" x2="730" y2="465" stroke="#333"/>
<line x1="80.0" y1="465" x2="80.0" y2="470" stroke="#333"/>
<text x="80.0" y="489" text-anchor="middle" font-family="Arial" font-size="12">Summer 2025</text>
<line x1="296.7" y1="465" x2="296.7" y2="470" stroke="#333"/>
<text x="296.7" y="489" text-anchor="middle" font-family="Arial" font-size="12">Fall 2025</text>
<line x1="513.3" y1="465" x2="513.3" y2="470" stroke="#333"/>
<text x="513.3" y="489" text-anchor="middle" font-family="Arial" font-size="12">Winter 2025</text>
<line x1="730.0" y1="465" x2="730.0" y2="470" stroke="#333"/>
<text x="730.0" y="489" text-anchor="middle" font-family="Arial" font-size="12">Summer 2026</text>
<text x="405.0" y="532" text-anchor="middle" font-family="Arial" font-size="14" font-weight="700">Assessment wave</text>
<text transform="translate(22 262.5) rotate(-90)" text-anchor="middle" font-family="Arial" font-size="14" font-weight="700">Mean ATLAS scale score</text>
<polyline fill="none" stroke="#1f77b4" stroke-width="3" points="513.3,228.4 730.0,122.8"/>
<circle cx="513.3" cy="228.4" r="4.5" fill="#1f77b4" stroke="white" stroke-width="1.5"/>
<text x="519.3" y="221.4" font-family="Arial" font-size="10" fill="#1f77b4">1046.3</text>
<circle cx="730.0" cy="122.8" r="4.5" fill="#1f77b4" stroke="white" stroke-width="1.5"/>
<text x="736.0" y="115.8" font-family="Arial" font-size="10" fill="#1f77b4">1058.0</text>
<polyline fill="none" stroke="#ff7f0e" stroke-width="3" points="80.0,176.4 513.3,247.4 730.0,175.0"/>
<circle cx="80.0" cy="176.4" r="4.5" fill="#ff7f0e" stroke="white" stroke-width="1.5"/>
<text x="86.0" y="169.4" font-family="Arial" font-size="10" fill="#ff7f0e">1052.1</text>
<circle cx="513.3" cy="247.4" r="4.5" fill="#ff7f0e" stroke="white" stroke-width="1.5"/>
<text x="519.3" y="240.4" font-family="Arial" font-size="10" fill="#ff7f0e">1044.2</text>
<circle cx="730.0" cy="175.0" r="4.5" fill="#ff7f0e" stroke="white" stroke-width="1.5"/>
<text x="736.0" y="168.0" font-family="Arial" font-size="10" fill="#ff7f0e">1052.2</text>
<polyline fill="none" stroke="#2ca02c" stroke-width="3" points="80.0,208.0 513.3,233.5 730.0,188.7"/>
<circle cx="80.0" cy="208.0" r="4.5" fill="#2ca02c" stroke="white" stroke-width="1.5"/>
<text x="86.0" y="201.0" font-family="Arial" font-size="10" fill="#2ca02c">1048.6</text>
<circle cx="513.3" cy="233.5" r="4.5" fill="#2ca02c" stroke="white" stroke-width="1.5"/>
<text x="519.3" y="226.5" font-family="Arial" font-size="10" fill="#2ca02c">1045.7</text>
<circle cx="730.0" cy="188.7" r="4.5" fill="#2ca02c" stroke="white" stroke-width="1.5"/>
<text x="736.0" y="181.7" font-family="Arial" font-size="10" fill="#2ca02c">1050.7</text>
<polyline fill="none" stroke="#d62728" stroke-width="3" points="80.0,216.0 296.7,377.2 513.3,291.8 730.0,213.3"/>
<circle cx="80.0" cy="216.0" r="4.5" fill="#d62728" stroke="white" stroke-width="1.5"/>
<text x="86.0" y="209.0" font-family="Arial" font-size="10" fill="#d62728">1047.7</text>
<circle cx="296.7" cy="377.2" r="4.5" fill="#d62728" stroke="white" stroke-width="1.5"/>
<text x="302.7" y="370.2" font-family="Arial" font-size="10" fill="#d62728">1029.8</text>
<circle cx="513.3" cy="291.8" r="4.5" fill="#d62728" stroke="white" stroke-width="1.5"/>
<text x="519.3" y="284.8" font-family="Arial" font-size="10" fill="#d62728">1039.2</text>
<circle cx="730.0" cy="213.3" r="4.5" fill="#d62728" stroke="white" stroke-width="1.5"/>
<text x="736.0" y="206.3" font-family="Arial" font-size="10" fill="#d62728">1048.0</text>
<polyline fill="none" stroke="#9467bd" stroke-width="3" points="80.0,230.9 296.7,320.6 513.3,262.5 730.0,172.6"/>
<circle cx="80.0" cy="230.9" r="4.5" fill="#9467bd" stroke="white" stroke-width="1.5"/>
<text x="86.0" y="223.9" font-family="Arial" font-size="10" fill="#9467bd">1046.0</text>
<circle cx="296.7" cy="320.6" r="4.5" fill="#9467bd" stroke="white" stroke-width="1.5"/>
<text x="302.7" y="313.6" font-family="Arial" font-size="10" fill="#9467bd">1036.0</text>
<circle cx="513.3" cy="262.5" r="4.5" fill="#9467bd" stroke="white" stroke-width="1.5"/>
<text x="519.3" y="255.5" font-family="Arial" font-size="10" fill="#9467bd">1042.5</text>
<circle cx="730.0" cy="172.6" r="4.5" fill="#9467bd" stroke="white" stroke-width="1.5"/>
<text x="736.0" y="165.6" font-family="Arial" font-size="10" fill="#9467bd">1052.5</text>
<polyline fill="none" stroke="#8c564b" stroke-width="3" points="80.0,173.6 296.7,300.6 513.3,254.6 730.0,229.8"/>
<circle cx="80.0" cy="173.6" r="4.5" fill="#8c564b" stroke="white" stroke-width="1.5"/>
<text x="86.0" y="166.6" font-family="Arial" font-size="10" fill="#8c564b">1052.4</text>
<circle cx="296.7" cy="300.6" r="4.5" fill="#8c564b" stroke="white" stroke-width="1.5"/>
<text x="302.7" y="293.6" font-family="Arial" font-size="10" fill="#8c564b">1038.3</text>
<circle cx="513.3" cy="254.6" r="4.5" fill="#8c564b" stroke="white" stroke-width="1.5"/>
<text x="519.3" y="247.6" font-family="Arial" font-size="10" fill="#8c564b">1043.4</text>
<circle cx="730.0" cy="229.8" r="4.5" fill="#8c564b" stroke="white" stroke-width="1.5"/>
<text x="736.0" y="222.8" font-family="Arial" font-size="10" fill="#8c564b">1046.1</text>
<text x="765" y="80" font-family="Arial" font-size="14" font-weight="700">Grade</text>
<line x1="765" y1="100" x2="793" y2="100" stroke="#1f77b4" stroke-width="3" opacity="1"/>
<circle cx="779" cy="100" r="4" fill="#1f77b4" opacity="1"/>
<text x="803" y="104" font-family="Arial" font-size="13" fill="#333" opacity="1">Kindergarten</text>
<line x1="765" y1="128" x2="793" y2="128" stroke="#ff7f0e" stroke-width="3" opacity="1"/>
<circle cx="779" cy="128" r="4" fill="#ff7f0e" opacity="1"/>
<text x="803" y="132" font-family="Arial" font-size="13" fill="#333" opacity="1">Grade 1</text>
<line x1="765" y1="156" x2="793" y2="156" stroke="#2ca02c" stroke-width="3" opacity="1"/>
<circle cx="779" cy="156" r="4" fill="#2ca02c" opacity="1"/>
<text x="803" y="160" font-family="Arial" font-size="13" fill="#333" opacity="1">Grade 2</text>
<line x1="765" y1="184" x2="793" y2="184" stroke="#d62728" stroke-width="3" opacity="1"/>
<circle cx="779" cy="184" r="4" fill="#d62728" opacity="1"/>
<text x="803" y="188" font-family="Arial" font-size="13" fill="#333" opacity="1">Grade 3</text>
<line x1="765" y1="212" x2="793" y2="212" stroke="#9467bd" stroke-width="3" opacity="1"/>
<circle cx="779" cy="212" r="4" fill="#9467bd" opacity="1"/>
<text x="803" y="216" font-family="Arial" font-size="13" fill="#333" opacity="1">Grade 4</text>
<line x1="765" y1="240" x2="793" y2="240" stroke="#8c564b" stroke-width="3" opacity="1"/>
<circle cx="779" cy="240" r="4" fill="#8c564b" opacity="1"/>
<text x="803" y="244" font-family="Arial" font-size="13" fill="#333" opacity="1">Grade 5</text>
</svg>