<svg xmlns="http://www.w3.org/2000/svg" width="960" height="560" viewBox="0 0 960 560" role="img" aria-label="JMTES ELA mean ATLAS scores by grade over time">
<rect width="100%" height="100%" fill="white"/>
<text x="480.0" y="30" text-anchor="middle" font-family="Arial" font-size="22" font-weight="700">JMTES ELA ATLAS Mean Scores Over Time</text>
<text x="480.0" y="52" text-anchor="middle" font-family="Arial" font-size="13" fill="#555">Lines show grade-level means for students at Murrell Taylor Elementary (JMTES)</text>
<line x1="80" y1="465.0" x2="730" y2="465.0" stroke="#e6e6e6" stroke-width="1"/>
<text x="70" y="469.0" text-anchor="end" font-family="Arial" font-size="12" fill="#555">1035</text>
<line x1="80" y1="407.1" x2="730" y2="407.1" stroke="#e6e6e6" stroke-width="1"/>
<text x="70" y="411.1" text-anchor="end" font-family="Arial" font-size="12" fill="#555">1040</text>
<line x1="80" y1="349.3" x2="730" y2="349.3" stroke="#e6e6e6" stroke-width="1"/>
<text x="70" y="353.3" text-anchor="end" font-family="Arial" font-size="12" fill="#555">1045</text>
<line x1="80" y1="291.4" x2="730" y2="291.4" stroke="#e6e6e6" stroke-width="1"/>
<text x="70" y="295.4" text-anchor="end" font-family="Arial" font-size="12" fill="#555">1050</text>
<line x1="80" y1="233.6" x2="730" y2="233.6" stroke="#e6e6e6" stroke-width="1"/>
<text x="70" y="237.6" text-anchor="end" font-family="Arial" font-size="12" fill="#555">1055</text>
<line x1="80" y1="175.7" x2="730" y2="175.7" stroke="#e6e6e6" stroke-width="1"/>
<text x="70" y="179.7" text-anchor="end" font-family="Arial" font-size="12" fill="#555">1060</text>
<line x1="80" y1="117.9" x2="730" y2="117.9" stroke="#e6e6e6" stroke-width="1"/>
<text x="70" y="121.9" text-anchor="end" font-family="Arial" font-size="12" fill="#555">1065</text>
<line x1="80" y1="60.0" x2="730" y2="60.0" stroke="#e6e6e6" stroke-width="1"/>
<text x="70" y="64.0" text-anchor="end" font-family="Arial" font-size="12" fill="#555">1070</text>
<line x1="80" y1="60" x2="80" y2="465" stroke="#333"/>
<line x1="80" y1="465" x2="730" y2="465" stroke="#333"/>
<line x1="80.0" y1="465" x2="80.0" y2="470" stroke="#333"/>
<text x="80.0" y="489" text-anchor="middle" font-family="Arial" font-size="12">Summer 2025</text>
<line x1="296.7" y1="465" x2="296.7" y2="470" stroke="#333"/>
<text x="296.7" y="489" text-anchor="middle" font-family="Arial" font-size="12">Fall 2025</text>
<line x1="513.3" y1="465" x2="513.3" y2="470" stroke="#333"/>
<text x="513.3" y="489" text-anchor="middle" font-family="Arial" font-size="12">Winter 2025</text>
<line x1="730.0" y1="465" x2="730.0" y2="470" stroke="#333"/>
<text x="730.0" y="489" text-anchor="middle" font-family="Arial" font-size="12">Summer 2026</text>
<text x="405.0" y="532" text-anchor="middle" font-family="Arial" font-size="14" font-weight="700">Assessment wave</text>
<text transform="translate(22 262.5) rotate(-90)" text-anchor="middle" font-family="Arial" font-size="14" font-weight="700">Mean ATLAS scale score</text>
<polyline fill="none" stroke="#1f77b4" stroke-width="3" points="513.3,291.9 730.0,183.0"/>
<circle cx="513.3" cy="291.9" r="4.5" fill="#1f77b4" stroke="white" stroke-width="1.5"/>
<text x="519.3" y="284.9" font-family="Arial" font-size="10" fill="#1f77b4">1050.0</text>
<circle cx="730.0" cy="183.0" r="4.5" fill="#1f77b4" stroke="white" stroke-width="1.5"/>
<text x="736.0" y="176.0" font-family="Arial" font-size="10" fill="#1f77b4">1059.4</text>
<polyline fill="none" stroke="#ff7f0e" stroke-width="3" points="80.0,346.5 513.3,313.2 730.0,206.7"/>
<circle cx="80.0" cy="346.5" r="4.5" fill="#ff7f0e" stroke="white" stroke-width="1.5"/>
<text x="86.0" y="339.5" font-family="Arial" font-size="10" fill="#ff7f0e">1045.2</text>
<circle cx="513.3" cy="313.2" r="4.5" fill="#ff7f0e" stroke="white" stroke-width="1.5"/>
<text x="519.3" y="306.2" font-family="Arial" font-size="10" fill="#ff7f0e">1048.1</text>
<circle cx="730.0" cy="206.7" r="4.5" fill="#ff7f0e" stroke="white" stroke-width="1.5"/>
<text x="736.0" y="199.7" font-family="Arial" font-size="10" fill="#ff7f0e">1057.3</text>
<polyline fill="none" stroke="#2ca02c" stroke-width="3" points="80.0,371.1 513.3,301.4 730.0,256.2"/>
<circle cx="80.0" cy="371.1" r="4.5" fill="#2ca02c" stroke="white" stroke-width="1.5"/>
<text x="86.0" y="364.1" font-family="Arial" font-size="10" fill="#2ca02c">1043.1</text>
<circle cx="513.3" cy="301.4" r="4.5" fill="#2ca02c" stroke="white" stroke-width="1.5"/>
<text x="519.3" y="294.4" font-family="Arial" font-size="10" fill="#2ca02c">1049.1</text>
<circle cx="730.0" cy="256.2" r="4.5" fill="#2ca02c" stroke="white" stroke-width="1.5"/>
<text x="736.0" y="249.2" font-family="Arial" font-size="10" fill="#2ca02c">1053.0</text>
<polyline fill="none" stroke="#d62728" stroke-width="3" points="80.0,331.1 296.7,386.4 513.3,324.2 730.0,284.3"/>
<circle cx="80.0" cy="331.1" r="4.5" fill="#d62728" stroke="white" stroke-width="1.5"/>
<text x="86.0" y="324.1" font-family="Arial" font-size="10" fill="#d62728">1046.6</text>
<circle cx="296.7" cy="386.4" r="4.5" fill="#d62728" stroke="white" stroke-width="1.5"/>
<text x="302.7" y="379.4" font-family="Arial" font-size="10" fill="#d62728">1041.8</text>
<circle cx="513.3" cy="324.2" r="4.5" fill="#d62728" stroke="white" stroke-width="1.5"/>
<text x="519.3" y="317.2" font-family="Arial" font-size="10" fill="#d62728">1047.2</text>
<circle cx="730.0" cy="284.3" r="4.5" fill="#d62728" stroke="white" stroke-width="1.5"/>
<text x="736.0" y="277.3" font-family="Arial" font-size="10" fill="#d62728">1050.6</text>
<polyline fill="none" stroke="#9467bd" stroke-width="3" points="80.0,270.2 296.7,376.0 513.3,293.0 730.0,236.3"/>
<circle cx="80.0" cy="270.2" r="4.5" fill="#9467bd" stroke="white" stroke-width="1.5"/>
<text x="86.0" y="263.2" font-family="Arial" font-size="10" fill="#9467bd">1051.8</text>
<circle cx="296.7" cy="376.0" r="4.5" fill="#9467bd" stroke="white" stroke-width="1.5"/>
<text x="302.7" y="369.0" font-family="Arial" font-size="10" fill="#9467bd">1042.7</text>
<circle cx="513.3" cy="293.0" r="4.5" fill="#9467bd" stroke="white" stroke-width="1.5"/>
<text x="519.3" y="286.0" font-family="Arial" font-size="10" fill="#9467bd">1049.9</text>
<circle cx="730.0" cy="236.3" r="4.5" fill="#9467bd" stroke="white" stroke-width="1.5"/>
<text x="736.0" y="229.3" font-family="Arial" font-size="10" fill="#9467bd">1054.8</text>
<polyline fill="none" stroke="#8c564b" stroke-width="3" points="80.0,223.4 296.7,341.1 513.3,327.7 730.0,284.8"/>
<circle cx="80.0" cy="223.4" r="4.5" fill="#8c564b" stroke="white" stroke-width="1.5"/>
<text x="86.0" y="216.4" font-family="Arial" font-size="10" fill="#8c564b">1055.9</text>
<circle cx="296.7" cy="341.1" r="4.5" fill="#8c564b" stroke="white" stroke-width="1.5"/>
<text x="302.7" y="334.1" font-family="Arial" font-size="10" fill="#8c564b">1045.7</text>
<circle cx="513.3" cy="327.7" r="4.5" fill="#8c564b" stroke="white" stroke-width="1.5"/>
<text x="519.3" y="320.7" font-family="Arial" font-size="10" fill="#8c564b">1046.9</text>
<circle cx="730.0" cy="284.8" r="4.5" fill="#8c564b" stroke="white" stroke-width="1.5"/>
<text x="736.0" y="277.8" font-family="Arial" font-size="10" fill="#8c564b">1050.6</text>
<text x="765" y="80" font-family="Arial" font-size="14" font-weight="700">Grade</text>
<line x1="765" y1="100" x2="793" y2="100" stroke="#1f77b4" stroke-width="3" opacity="1"/>
<circle cx="779" cy="100" r="4" fill="#1f77b4" opacity="1"/>
<text x="803" y="104" font-family="Arial" font-size="13" fill="#333" opacity="1">Kindergarten</text>
<line x1="765" y1="128" x2="793" y2="128" stroke="#ff7f0e" stroke-width="3" opacity="1"/>
<circle cx="779" cy="128" r="4" fill="#ff7f0e" opacity="1"/>
<text x="803" y="132" font-family="Arial" font-size="13" fill="#333" opacity="1">Grade 1</text>
<line x1="765" y1="156" x2="793" y2="156" stroke="#2ca02c" stroke-width="3" opacity="1"/>
<circle cx="779" cy="156" r="4" fill="#2ca02c" opacity="1"/>
<text x="803" y="160" font-family="Arial" font-size="13" fill="#333" opacity="1">Grade 2</text>
<line x1="765" y1="184" x2="793" y2="184" stroke="#d62728" stroke-width="3" opacity="1"/>
<circle cx="779" cy="184" r="4" fill="#d62728" opacity="1"/>
<text x="803" y="188" font-family="Arial" font-size="13" fill="#333" opacity="1">Grade 3</text>
<line x1="765" y1="212" x2="793" y2="212" stroke="#9467bd" stroke-width="3" opacity="1"/>
<circle cx="779" cy="212" r="4" fill="#9467bd" opacity="1"/>
<text x="803" y="216" font-family="Arial" font-size="13" fill="#333" opacity="1">Grade 4</text>
<line x1="765" y1="240" x2="793" y2="240" stroke="#8c564b" stroke-width="3" opacity="1"/>
<circle cx="779" cy="240" r="4" fill="#8c564b" opacity="1"/>
<text x="803" y="244" font-family="Arial" font-size="13" fill="#333" opacity="1">Grade 5</text>
</svg>