<svg xmlns="http://www.w3.org/2000/svg" width="1000" height="720" viewBox="0 0 1000 720">
<rect width="100%" height="100%" fill="white"/>
<text x="70" y="30" font-family="Arial" font-size="18" font-weight="bold">Distribution of attendance outcomes by school</text>
<text x="70" y="50" font-family="Arial" font-size="13">Overlapped bars show student counts in two-percentage-point bins</text>
<text x="70" y="47" font-family="Arial" font-size="14" font-weight="bold">Unexcused absence %</text>
<line x1="70" x2="920" y1="235" y2="235" stroke="black"/>
<line x1="70" x2="70" y1="55" y2="235" stroke="black"/>
<rect x="70.0" y="80.2" width="14.7" height="154.8" fill="#D95F02" fill-opacity="0.45" stroke="white" stroke-width="0.2"/>
<rect x="85.5" y="76.3" width="14.7" height="158.7" fill="#D95F02" fill-opacity="0.45" stroke="white" stroke-width="0.2"/>
<rect x="100.9" y="75.0" width="14.7" height="160.0" fill="#D95F02" fill-opacity="0.45" stroke="white" stroke-width="0.2"/>
<rect x="116.4" y="164.2" width="14.7" height="70.8" fill="#D95F02" fill-opacity="0.45" stroke="white" stroke-width="0.2"/>
<rect x="131.8" y="165.5" width="14.7" height="69.5" fill="#D95F02" fill-opacity="0.45" stroke="white" stroke-width="0.2"/>
<rect x="147.3" y="165.5" width="14.7" height="69.5" fill="#D95F02" fill-opacity="0.45" stroke="white" stroke-width="0.2"/>
<rect x="162.7" y="202.2" width="14.7" height="32.8" fill="#D95F02" fill-opacity="0.45" stroke="white" stroke-width="0.2"/>
<rect x="178.2" y="206.1" width="14.7" height="28.9" fill="#D95F02" fill-opacity="0.45" stroke="white" stroke-width="0.2"/>
<rect x="193.6" y="207.5" width="14.7" height="27.5" fill="#D95F02" fill-opacity="0.45" stroke="white" stroke-width="0.2"/>
<rect x="209.1" y="214.0" width="14.7" height="21.0" fill="#D95F02" fill-opacity="0.45" stroke="white" stroke-width="0.2"/>
<rect x="224.5" y="218.0" width="14.7" height="17.0" fill="#D95F02" fill-opacity="0.45" stroke="white" stroke-width="0.2"/>
<rect x="240.0" y="228.4" width="14.7" height="6.6" fill="#D95F02" fill-opacity="0.45" stroke="white" stroke-width="0.2"/>
<rect x="255.5" y="223.2" width="14.7" height="11.8" fill="#D95F02" fill-opacity="0.45" stroke="white" stroke-width="0.2"/>
<rect x="270.9" y="225.8" width="14.7" height="9.2" fill="#D95F02" fill-opacity="0.45" stroke="white" stroke-width="0.2"/>
<rect x="286.4" y="229.8" width="14.7" height="5.2" fill="#D95F02" fill-opacity="0.45" stroke="white" stroke-width="0.2"/>
<rect x="301.8" y="231.1" width="14.7" height="3.9" fill="#D95F02" fill-opacity="0.45" stroke="white" stroke-width="0.2"/>
<rect x="317.3" y="227.1" width="14.7" height="7.9" fill="#D95F02" fill-opacity="0.45" stroke="white" stroke-width="0.2"/>
<rect x="332.7" y="225.8" width="14.7" height="9.2" fill="#D95F02" fill-opacity="0.45" stroke="white" stroke-width="0.2"/>
<rect x="348.2" y="233.7" width="14.7" height="1.3" fill="#D95F02" fill-opacity="0.45" stroke="white" stroke-width="0.2"/>
<rect x="363.6" y="231.1" width="14.7" height="3.9" fill="#D95F02" fill-opacity="0.45" stroke="white" stroke-width="0.2"/>
<rect x="379.1" y="231.1" width="14.7" height="3.9" fill="#D95F02" fill-opacity="0.45" stroke="white" stroke-width="0.2"/>
<rect x="394.5" y="233.7" width="14.7" height="1.3" fill="#D95F02" fill-opacity="0.45" stroke="white" stroke-width="0.2"/>
<rect x="410.0" y="232.4" width="14.7" height="2.6" fill="#D95F02" fill-opacity="0.45" stroke="white" stroke-width="0.2"/>
<rect x="425.5" y="235.0" width="14.7" height="0.0" fill="#D95F02" fill-opacity="0.45" stroke="white" stroke-width="0.2"/>
<rect x="440.9" y="232.4" width="14.7" height="2.6" fill="#D95F02" fill-opacity="0.45" stroke="white" stroke-width="0.2"/>
<rect x="456.4" y="233.7" width="14.7" height="1.3" fill="#D95F02" fill-opacity="0.45" stroke="white" stroke-width="0.2"/>
<rect x="471.8" y="233.7" width="14.7" height="1.3" fill="#D95F02" fill-opacity="0.45" stroke="white" stroke-width="0.2"/>
<rect x="487.3" y="235.0" width="14.7" height="0.0" fill="#D95F02" fill-opacity="0.45" stroke="white" stroke-width="0.2"/>
<rect x="502.7" y="235.0" width="14.7" height="0.0" fill="#D95F02" fill-opacity="0.45" stroke="white" stroke-width="0.2"/>
<rect x="518.2" y="232.4" width="14.7" height="2.6" fill="#D95F02" fill-opacity="0.45" stroke="white" stroke-width="0.2"/>
<rect x="533.6" y="235.0" width="14.7" height="0.0" fill="#D95F02" fill-opacity="0.45" stroke="white" stroke-width="0.2"/>
<rect x="549.1" y="235.0" width="14.7" height="0.0" fill="#D95F02" fill-opacity="0.45" stroke="white" stroke-width="0.2"/>
<rect x="564.5" y="235.0" width="14.7" height="0.0" fill="#D95F02" fill-opacity="0.45" stroke="white" stroke-width="0.2"/>
<rect x="580.0" y="235.0" width="14.7" height="0.0" fill="#D95F02" fill-opacity="0.45" stroke="white" stroke-width="0.2"/>
<rect x="595.5" y="235.0" width="14.7" height="0.0" fill="#D95F02" fill-opacity="0.45" stroke="white" stroke-width="0.2"/>
<rect x="610.9" y="235.0" width="14.7" height="0.0" fill="#D95F02" fill-opacity="0.45" stroke="white" stroke-width="0.2"/>
<rect x="626.4" y="235.0" width="14.7" height="0.0" fill="#D95F02" fill-opacity="0.45" stroke="white" stroke-width="0.2"/>
<rect x="641.8" y="235.0" width="14.7" height="0.0" fill="#D95F02" fill-opacity="0.45" stroke="white" stroke-width="0.2"/>
<rect x="657.3" y="235.0" width="14.7" height="0.0" fill="#D95F02" fill-opacity="0.45" stroke="white" stroke-width="0.2"/>
<rect x="672.7" y="235.0" width="14.7" height="0.0" fill="#D95F02" fill-opacity="0.45" stroke="white" stroke-width="0.2"/>
<rect x="688.2" y="235.0" width="14.7" height="0.0" fill="#D95F02" fill-opacity="0.45" stroke="white" stroke-width="0.2"/>
<rect x="703.6" y="235.0" width="14.7" height="0.0" fill="#D95F02" fill-opacity="0.45" stroke="white" stroke-width="0.2"/>
<rect x="719.1" y="235.0" width="14.7" height="0.0" fill="#D95F02" fill-opacity="0.45" stroke="white" stroke-width="0.2"/>
<rect x="734.5" y="235.0" width="14.7" height="0.0" fill="#D95F02" fill-opacity="0.45" stroke="white" stroke-width="0.2"/>
<rect x="750.0" y="235.0" width="14.7" height="0.0" fill="#D95F02" fill-opacity="0.45" stroke="white" stroke-width="0.2"/>
<rect x="765.5" y="235.0" width="14.7" height="0.0" fill="#D95F02" fill-opacity="0.45" stroke="white" stroke-width="0.2"/>
<rect x="780.9" y="235.0" width="14.7" height="0.0" fill="#D95F02" fill-opacity="0.45" stroke="white" stroke-width="0.2"/>
<rect x="796.4" y="235.0" width="14.7" height="0.0" fill="#D95F02" fill-opacity="0.45" stroke="white" stroke-width="0.2"/>
<rect x="811.8" y="235.0" width="14.7" height="0.0" fill="#D95F02" fill-opacity="0.45" stroke="white" stroke-width="0.2"/>
<rect x="827.3" y="235.0" width="14.7" height="0.0" fill="#D95F02" fill-opacity="0.45" stroke="white" stroke-width="0.2"/>
<rect x="842.7" y="235.0" width="14.7" height="0.0" fill="#D95F02" fill-opacity="0.45" stroke="white" stroke-width="0.2"/>
<rect x="858.2" y="235.0" width="14.7" height="0.0" fill="#D95F02" fill-opacity="0.45" stroke="white" stroke-width="0.2"/>
<rect x="873.6" y="233.7" width="14.7" height="1.3" fill="#D95F02" fill-opacity="0.45" stroke="white" stroke-width="0.2"/>
<rect x="889.1" y="235.0" width="14.7" height="0.0" fill="#D95F02" fill-opacity="0.45" stroke="white" stroke-width="0.2"/>
<rect x="904.5" y="235.0" width="14.7" height="0.0" fill="#D95F02" fill-opacity="0.45" stroke="white" stroke-width="0.2"/>
<rect x="70.0" y="99.9" width="14.7" height="135.1" fill="#1B9E77" fill-opacity="0.45" stroke="white" stroke-width="0.2"/>
<rect x="85.5" y="132.7" width="14.7" height="102.3" fill="#1B9E77" fill-opacity="0.45" stroke="white" stroke-width="0.2"/>
<rect x="100.9" y="128.8" width="14.7" height="106.2" fill="#1B9E77" fill-opacity="0.45" stroke="white" stroke-width="0.2"/>
<rect x="116.4" y="148.4" width="14.7" height="86.6" fill="#1B9E77" fill-opacity="0.45" stroke="white" stroke-width="0.2"/>
<rect x="131.8" y="190.4" width="14.7" height="44.6" fill="#1B9E77" fill-opacity="0.45" stroke="white" stroke-width="0.2"/>
<rect x="147.3" y="193.0" width="14.7" height="42.0" fill="#1B9E77" fill-opacity="0.45" stroke="white" stroke-width="0.2"/>
<rect x="162.7" y="223.2" width="14.7" height="11.8" fill="#1B9E77" fill-opacity="0.45" stroke="white" stroke-width="0.2"/>
<rect x="178.2" y="231.1" width="14.7" height="3.9" fill="#1B9E77" fill-opacity="0.45" stroke="white" stroke-width="0.2"/>
<rect x="193.6" y="228.4" width="14.7" height="6.6" fill="#1B9E77" fill-opacity="0.45" stroke="white" stroke-width="0.2"/>
<rect x="209.1" y="229.8" width="14.7" height="5.2" fill="#1B9E77" fill-opacity="0.45" stroke="white" stroke-width="0.2"/>
<rect x="224.5" y="233.7" width="14.7" height="1.3" fill="#1B9E77" fill-opacity="0.45" stroke="white" stroke-width="0.2"/>
<rect x="240.0" y="232.4" width="14.7" height="2.6" fill="#1B9E77" fill-opacity="0.45" stroke="white" stroke-width="0.2"/>
<rect x="255.5" y="235.0" width="14.7" height="0.0" fill="#1B9E77" fill-opacity="0.45" stroke="white" stroke-width="0.2"/>
<rect x="270.9" y="235.0" width="14.7" height="0.0" fill="#1B9E77" fill-opacity="0.45" stroke="white" stroke-width="0.2"/>
<rect x="286.4" y="235.0" width="14.7" height="0.0" fill="#1B9E77" fill-opacity="0.45" stroke="white" stroke-width="0.2"/>
<rect x="301.8" y="235.0" width="14.7" height="0.0" fill="#1B9E77" fill-opacity="0.45" stroke="white" stroke-width="0.2"/>
<rect x="317.3" y="235.0" width="14.7" height="0.0" fill="#1B9E77" fill-opacity="0.45" stroke="white" stroke-width="0.2"/>
<rect x="332.7" y="235.0" width="14.7" height="0.0" fill="#1B9E77" fill-opacity="0.45" stroke="white" stroke-width="0.2"/>
<rect x="348.2" y="235.0" width="14.7" height="0.0" fill="#1B9E77" fill-opacity="0.45" stroke="white" stroke-width="0.2"/>
<rect x="363.6" y="235.0" width="14.7" height="0.0" fill="#1B9E77" fill-opacity="0.45" stroke="white" stroke-width="0.2"/>
<rect x="379.1" y="235.0" width="14.7" height="0.0" fill="#1B9E77" fill-opacity="0.45" stroke="white" stroke-width="0.2"/>
<rect x="394.5" y="235.0" width="14.7" height="0.0" fill="#1B9E77" fill-opacity="0.45" stroke="white" stroke-width="0.2"/>
<rect x="410.0" y="233.7" width="14.7" height="1.3" fill="#1B9E77" fill-opacity="0.45" stroke="white" stroke-width="0.2"/>
<rect x="425.5" y="235.0" width="14.7" height="0.0" fill="#1B9E77" fill-opacity="0.45" stroke="white" stroke-width="0.2"/>
<rect x="440.9" y="235.0" width="14.7" height="0.0" fill="#1B9E77" fill-opacity="0.45" stroke="white" stroke-width="0.2"/>
<rect x="456.4" y="235.0" width="14.7" height="0.0" fill="#1B9E77" fill-opacity="0.45" stroke="white" stroke-width="0.2"/>
<rect x="471.8" y="235.0" width="14.7" height="0.0" fill="#1B9E77" fill-opacity="0.45" stroke="white" stroke-width="0.2"/>
<rect x="487.3" y="235.0" width="14.7" height="0.0" fill="#1B9E77" fill-opacity="0.45" stroke="white" stroke-width="0.2"/>
<rect x="502.7" y="235.0" width="14.7" height="0.0" fill="#1B9E77" fill-opacity="0.45" stroke="white" stroke-width="0.2"/>
<rect x="518.2" y="235.0" width="14.7" height="0.0" fill="#1B9E77" fill-opacity="0.45" stroke="white" stroke-width="0.2"/>
<rect x="533.6" y="235.0" width="14.7" height="0.0" fill="#1B9E77" fill-opacity="0.45" stroke="white" stroke-width="0.2"/>
<rect x="549.1" y="235.0" width="14.7" height="0.0" fill="#1B9E77" fill-opacity="0.45" stroke="white" stroke-width="0.2"/>
<rect x="564.5" y="235.0" width="14.7" height="0.0" fill="#1B9E77" fill-opacity="0.45" stroke="white" stroke-width="0.2"/>
<rect x="580.0" y="235.0" width="14.7" height="0.0" fill="#1B9E77" fill-opacity="0.45" stroke="white" stroke-width="0.2"/>
<rect x="595.5" y="235.0" width="14.7" height="0.0" fill="#1B9E77" fill-opacity="0.45" stroke="white" stroke-width="0.2"/>
<rect x="610.9" y="235.0" width="14.7" height="0.0" fill="#1B9E77" fill-opacity="0.45" stroke="white" stroke-width="0.2"/>
<rect x="626.4" y="235.0" width="14.7" height="0.0" fill="#1B9E77" fill-opacity="0.45" stroke="white" stroke-width="0.2"/>
<rect x="641.8" y="235.0" width="14.7" height="0.0" fill="#1B9E77" fill-opacity="0.45" stroke="white" stroke-width="0.2"/>
<rect x="657.3" y="235.0" width="14.7" height="0.0" fill="#1B9E77" fill-opacity="0.45" stroke="white" stroke-width="0.2"/>
<rect x="672.7" y="235.0" width="14.7" height="0.0" fill="#1B9E77" fill-opacity="0.45" stroke="white" stroke-width="0.2"/>
<rect x="688.2" y="235.0" width="14.7" height="0.0" fill="#1B9E77" fill-opacity="0.45" stroke="white" stroke-width="0.2"/>
<rect x="703.6" y="235.0" width="14.7" height="0.0" fill="#1B9E77" fill-opacity="0.45" stroke="white" stroke-width="0.2"/>
<rect x="719.1" y="235.0" width="14.7" height="0.0" fill="#1B9E77" fill-opacity="0.45" stroke="white" stroke-width="0.2"/>
<rect x="734.5" y="235.0" width="14.7" height="0.0" fill="#1B9E77" fill-opacity="0.45" stroke="white" stroke-width="0.2"/>
<rect x="750.0" y="235.0" width="14.7" height="0.0" fill="#1B9E77" fill-opacity="0.45" stroke="white" stroke-width="0.2"/>
<rect x="765.5" y="235.0" width="14.7" height="0.0" fill="#1B9E77" fill-opacity="0.45" stroke="white" stroke-width="0.2"/>
<rect x="780.9" y="235.0" width="14.7" height="0.0" fill="#1B9E77" fill-opacity="0.45" stroke="white" stroke-width="0.2"/>
<rect x="796.4" y="235.0" width="14.7" height="0.0" fill="#1B9E77" fill-opacity="0.45" stroke="white" stroke-width="0.2"/>
<rect x="811.8" y="235.0" width="14.7" height="0.0" fill="#1B9E77" fill-opacity="0.45" stroke="white" stroke-width="0.2"/>
<rect x="827.3" y="235.0" width="14.7" height="0.0" fill="#1B9E77" fill-opacity="0.45" stroke="white" stroke-width="0.2"/>
<rect x="842.7" y="235.0" width="14.7" height="0.0" fill="#1B9E77" fill-opacity="0.45" stroke="white" stroke-width="0.2"/>
<rect x="858.2" y="235.0" width="14.7" height="0.0" fill="#1B9E77" fill-opacity="0.45" stroke="white" stroke-width="0.2"/>
<rect x="873.6" y="235.0" width="14.7" height="0.0" fill="#1B9E77" fill-opacity="0.45" stroke="white" stroke-width="0.2"/>
<rect x="889.1" y="235.0" width="14.7" height="0.0" fill="#1B9E77" fill-opacity="0.45" stroke="white" stroke-width="0.2"/>
<rect x="904.5" y="235.0" width="14.7" height="0.0" fill="#1B9E77" fill-opacity="0.45" stroke="white" stroke-width="0.2"/>
<text x="70.0" y="250" text-anchor="middle" font-family="Arial" font-size="10">0</text>
<text x="147.3" y="250" text-anchor="middle" font-family="Arial" font-size="10">10</text>
<text x="224.5" y="250" text-anchor="middle" font-family="Arial" font-size="10">20</text>
<text x="379.1" y="250" text-anchor="middle" font-family="Arial" font-size="10">40</text>
<text x="533.6" y="250" text-anchor="middle" font-family="Arial" font-size="10">60</text>
<text x="688.2" y="250" text-anchor="middle" font-family="Arial" font-size="10">80</text>
<text x="842.7" y="250" text-anchor="middle" font-family="Arial" font-size="10">100</text>
<text x="60" y="67" text-anchor="end" font-family="Arial" font-size="10">122</text>
<text x="70" y="262" font-family="Arial" font-size="14" font-weight="bold">Excused absence %</text>
<line x1="70" x2="920" y1="450" y2="450" stroke="black"/>
<line x1="70" x2="70" y1="270" y2="450" stroke="black"/>
<rect x="70.0" y="290.0" width="67.3" height="160.0" fill="#D95F02" fill-opacity="0.45" stroke="white" stroke-width="0.2"/>
<rect x="140.8" y="424.8" width="67.3" height="25.2" fill="#D95F02" fill-opacity="0.45" stroke="white" stroke-width="0.2"/>
<rect x="211.7" y="438.9" width="67.3" height="11.1" fill="#D95F02" fill-opacity="0.45" stroke="white" stroke-width="0.2"/>
<rect x="282.5" y="446.1" width="67.3" height="3.9" fill="#D95F02" fill-opacity="0.45" stroke="white" stroke-width="0.2"/>
<rect x="353.3" y="448.5" width="67.3" height="1.5" fill="#D95F02" fill-opacity="0.45" stroke="white" stroke-width="0.2"/>
<rect x="424.2" y="449.7" width="67.3" height="0.3" fill="#D95F02" fill-opacity="0.45" stroke="white" stroke-width="0.2"/>
<rect x="495.0" y="450.0" width="67.3" height="0.0" fill="#D95F02" fill-opacity="0.45" stroke="white" stroke-width="0.2"/>
<rect x="565.8" y="450.0" width="67.3" height="0.0" fill="#D95F02" fill-opacity="0.45" stroke="white" stroke-width="0.2"/>
<rect x="636.7" y="450.0" width="67.3" height="0.0" fill="#D95F02" fill-opacity="0.45" stroke="white" stroke-width="0.2"/>
<rect x="707.5" y="449.7" width="67.3" height="0.3" fill="#D95F02" fill-opacity="0.45" stroke="white" stroke-width="0.2"/>
<rect x="778.3" y="449.7" width="67.3" height="0.3" fill="#D95F02" fill-opacity="0.45" stroke="white" stroke-width="0.2"/>
<rect x="849.2" y="449.7" width="67.3" height="0.3" fill="#D95F02" fill-opacity="0.45" stroke="white" stroke-width="0.2"/>
<rect x="70.0" y="357.8" width="67.3" height="92.2" fill="#1B9E77" fill-opacity="0.45" stroke="white" stroke-width="0.2"/>
<rect x="140.8" y="433.2" width="67.3" height="16.8" fill="#1B9E77" fill-opacity="0.45" stroke="white" stroke-width="0.2"/>
<rect x="211.7" y="441.6" width="67.3" height="8.4" fill="#1B9E77" fill-opacity="0.45" stroke="white" stroke-width="0.2"/>
<rect x="282.5" y="445.8" width="67.3" height="4.2" fill="#1B9E77" fill-opacity="0.45" stroke="white" stroke-width="0.2"/>
<rect x="353.3" y="449.7" width="67.3" height="0.3" fill="#1B9E77" fill-opacity="0.45" stroke="white" stroke-width="0.2"/>
<rect x="424.2" y="447.9" width="67.3" height="2.1" fill="#1B9E77" fill-opacity="0.45" stroke="white" stroke-width="0.2"/>
<rect x="495.0" y="448.5" width="67.3" height="1.5" fill="#1B9E77" fill-opacity="0.45" stroke="white" stroke-width="0.2"/>
<rect x="565.8" y="450.0" width="67.3" height="0.0" fill="#1B9E77" fill-opacity="0.45" stroke="white" stroke-width="0.2"/>
<rect x="636.7" y="449.7" width="67.3" height="0.3" fill="#1B9E77" fill-opacity="0.45" stroke="white" stroke-width="0.2"/>
<rect x="707.5" y="450.0" width="67.3" height="0.0" fill="#1B9E77" fill-opacity="0.45" stroke="white" stroke-width="0.2"/>
<rect x="778.3" y="450.0" width="67.3" height="0.0" fill="#1B9E77" fill-opacity="0.45" stroke="white" stroke-width="0.2"/>
<rect x="849.2" y="450.0" width="67.3" height="0.0" fill="#1B9E77" fill-opacity="0.45" stroke="white" stroke-width="0.2"/>
<text x="70.0" y="465" text-anchor="middle" font-family="Arial" font-size="10">0</text>
<text x="424.2" y="465" text-anchor="middle" font-family="Arial" font-size="10">10</text>
<text x="778.3" y="465" text-anchor="middle" font-family="Arial" font-size="10">20</text>
<text x="60" y="282" text-anchor="end" font-family="Arial" font-size="10">533</text>
<text x="70" y="477" font-family="Arial" font-size="14" font-weight="bold">Total absence %</text>
<line x1="70" x2="920" y1="665" y2="665" stroke="black"/>
<line x1="70" x2="70" y1="485" y2="665" stroke="black"/>
<rect x="70.0" y="559.5" width="14.7" height="105.5" fill="#D95F02" fill-opacity="0.45" stroke="white" stroke-width="0.2"/>
<rect x="85.5" y="548.6" width="14.7" height="116.4" fill="#D95F02" fill-opacity="0.45" stroke="white" stroke-width="0.2"/>
<rect x="100.9" y="505.0" width="14.7" height="160.0" fill="#D95F02" fill-opacity="0.45" stroke="white" stroke-width="0.2"/>
<rect x="116.4" y="577.7" width="14.7" height="87.3" fill="#D95F02" fill-opacity="0.45" stroke="white" stroke-width="0.2"/>
<rect x="131.8" y="600.8" width="14.7" height="64.2" fill="#D95F02" fill-opacity="0.45" stroke="white" stroke-width="0.2"/>
<rect x="147.3" y="606.8" width="14.7" height="58.2" fill="#D95F02" fill-opacity="0.45" stroke="white" stroke-width="0.2"/>
<rect x="162.7" y="637.1" width="14.7" height="27.9" fill="#D95F02" fill-opacity="0.45" stroke="white" stroke-width="0.2"/>
<rect x="178.2" y="626.2" width="14.7" height="38.8" fill="#D95F02" fill-opacity="0.45" stroke="white" stroke-width="0.2"/>
<rect x="193.6" y="643.2" width="14.7" height="21.8" fill="#D95F02" fill-opacity="0.45" stroke="white" stroke-width="0.2"/>
<rect x="209.1" y="635.9" width="14.7" height="29.1" fill="#D95F02" fill-opacity="0.45" stroke="white" stroke-width="0.2"/>
<rect x="224.5" y="638.3" width="14.7" height="26.7" fill="#D95F02" fill-opacity="0.45" stroke="white" stroke-width="0.2"/>
<rect x="240.0" y="657.7" width="14.7" height="7.3" fill="#D95F02" fill-opacity="0.45" stroke="white" stroke-width="0.2"/>
<rect x="255.5" y="649.2" width="14.7" height="15.8" fill="#D95F02" fill-opacity="0.45" stroke="white" stroke-width="0.2"/>
<rect x="270.9" y="656.5" width="14.7" height="8.5" fill="#D95F02" fill-opacity="0.45" stroke="white" stroke-width="0.2"/>
<rect x="286.4" y="657.7" width="14.7" height="7.3" fill="#D95F02" fill-opacity="0.45" stroke="white" stroke-width="0.2"/>
<rect x="301.8" y="663.8" width="14.7" height="1.2" fill="#D95F02" fill-opacity="0.45" stroke="white" stroke-width="0.2"/>
<rect x="317.3" y="657.7" width="14.7" height="7.3" fill="#D95F02" fill-opacity="0.45" stroke="white" stroke-width="0.2"/>
<rect x="332.7" y="657.7" width="14.7" height="7.3" fill="#D95F02" fill-opacity="0.45" stroke="white" stroke-width="0.2"/>
<rect x="348.2" y="661.4" width="14.7" height="3.6" fill="#D95F02" fill-opacity="0.45" stroke="white" stroke-width="0.2"/>
<rect x="363.6" y="661.4" width="14.7" height="3.6" fill="#D95F02" fill-opacity="0.45" stroke="white" stroke-width="0.2"/>
<rect x="379.1" y="662.6" width="14.7" height="2.4" fill="#D95F02" fill-opacity="0.45" stroke="white" stroke-width="0.2"/>
<rect x="394.5" y="661.4" width="14.7" height="3.6" fill="#D95F02" fill-opacity="0.45" stroke="white" stroke-width="0.2"/>
<rect x="410.0" y="661.4" width="14.7" height="3.6" fill="#D95F02" fill-opacity="0.45" stroke="white" stroke-width="0.2"/>
<rect x="425.5" y="665.0" width="14.7" height="0.0" fill="#D95F02" fill-opacity="0.45" stroke="white" stroke-width="0.2"/>
<rect x="440.9" y="662.6" width="14.7" height="2.4" fill="#D95F02" fill-opacity="0.45" stroke="white" stroke-width="0.2"/>
<rect x="456.4" y="665.0" width="14.7" height="0.0" fill="#D95F02" fill-opacity="0.45" stroke="white" stroke-width="0.2"/>
<rect x="471.8" y="663.8" width="14.7" height="1.2" fill="#D95F02" fill-opacity="0.45" stroke="white" stroke-width="0.2"/>
<rect x="487.3" y="660.2" width="14.7" height="4.8" fill="#D95F02" fill-opacity="0.45" stroke="white" stroke-width="0.2"/>
<rect x="502.7" y="665.0" width="14.7" height="0.0" fill="#D95F02" fill-opacity="0.45" stroke="white" stroke-width="0.2"/>
<rect x="518.2" y="662.6" width="14.7" height="2.4" fill="#D95F02" fill-opacity="0.45" stroke="white" stroke-width="0.2"/>
<rect x="533.6" y="665.0" width="14.7" height="0.0" fill="#D95F02" fill-opacity="0.45" stroke="white" stroke-width="0.2"/>
<rect x="549.1" y="665.0" width="14.7" height="0.0" fill="#D95F02" fill-opacity="0.45" stroke="white" stroke-width="0.2"/>
<rect x="564.5" y="665.0" width="14.7" height="0.0" fill="#D95F02" fill-opacity="0.45" stroke="white" stroke-width="0.2"/>
<rect x="580.0" y="665.0" width="14.7" height="0.0" fill="#D95F02" fill-opacity="0.45" stroke="white" stroke-width="0.2"/>
<rect x="595.5" y="665.0" width="14.7" height="0.0" fill="#D95F02" fill-opacity="0.45" stroke="white" stroke-width="0.2"/>
<rect x="610.9" y="665.0" width="14.7" height="0.0" fill="#D95F02" fill-opacity="0.45" stroke="white" stroke-width="0.2"/>
<rect x="626.4" y="665.0" width="14.7" height="0.0" fill="#D95F02" fill-opacity="0.45" stroke="white" stroke-width="0.2"/>
<rect x="641.8" y="665.0" width="14.7" height="0.0" fill="#D95F02" fill-opacity="0.45" stroke="white" stroke-width="0.2"/>
<rect x="657.3" y="665.0" width="14.7" height="0.0" fill="#D95F02" fill-opacity="0.45" stroke="white" stroke-width="0.2"/>
<rect x="672.7" y="665.0" width="14.7" height="0.0" fill="#D95F02" fill-opacity="0.45" stroke="white" stroke-width="0.2"/>
<rect x="688.2" y="665.0" width="14.7" height="0.0" fill="#D95F02" fill-opacity="0.45" stroke="white" stroke-width="0.2"/>
<rect x="703.6" y="665.0" width="14.7" height="0.0" fill="#D95F02" fill-opacity="0.45" stroke="white" stroke-width="0.2"/>
<rect x="719.1" y="665.0" width="14.7" height="0.0" fill="#D95F02" fill-opacity="0.45" stroke="white" stroke-width="0.2"/>
<rect x="734.5" y="665.0" width="14.7" height="0.0" fill="#D95F02" fill-opacity="0.45" stroke="white" stroke-width="0.2"/>
<rect x="750.0" y="665.0" width="14.7" height="0.0" fill="#D95F02" fill-opacity="0.45" stroke="white" stroke-width="0.2"/>
<rect x="765.5" y="665.0" width="14.7" height="0.0" fill="#D95F02" fill-opacity="0.45" stroke="white" stroke-width="0.2"/>
<rect x="780.9" y="665.0" width="14.7" height="0.0" fill="#D95F02" fill-opacity="0.45" stroke="white" stroke-width="0.2"/>
<rect x="796.4" y="665.0" width="14.7" height="0.0" fill="#D95F02" fill-opacity="0.45" stroke="white" stroke-width="0.2"/>
<rect x="811.8" y="665.0" width="14.7" height="0.0" fill="#D95F02" fill-opacity="0.45" stroke="white" stroke-width="0.2"/>
<rect x="827.3" y="665.0" width="14.7" height="0.0" fill="#D95F02" fill-opacity="0.45" stroke="white" stroke-width="0.2"/>
<rect x="842.7" y="665.0" width="14.7" height="0.0" fill="#D95F02" fill-opacity="0.45" stroke="white" stroke-width="0.2"/>
<rect x="858.2" y="665.0" width="14.7" height="0.0" fill="#D95F02" fill-opacity="0.45" stroke="white" stroke-width="0.2"/>
<rect x="873.6" y="665.0" width="14.7" height="0.0" fill="#D95F02" fill-opacity="0.45" stroke="white" stroke-width="0.2"/>
<rect x="889.1" y="663.8" width="14.7" height="1.2" fill="#D95F02" fill-opacity="0.45" stroke="white" stroke-width="0.2"/>
<rect x="904.5" y="665.0" width="14.7" height="0.0" fill="#D95F02" fill-opacity="0.45" stroke="white" stroke-width="0.2"/>
<rect x="70.0" y="592.3" width="14.7" height="72.7" fill="#1B9E77" fill-opacity="0.45" stroke="white" stroke-width="0.2"/>
<rect x="85.5" y="589.8" width="14.7" height="75.2" fill="#1B9E77" fill-opacity="0.45" stroke="white" stroke-width="0.2"/>
<rect x="100.9" y="564.4" width="14.7" height="100.6" fill="#1B9E77" fill-opacity="0.45" stroke="white" stroke-width="0.2"/>
<rect x="116.4" y="586.2" width="14.7" height="78.8" fill="#1B9E77" fill-opacity="0.45" stroke="white" stroke-width="0.2"/>
<rect x="131.8" y="603.2" width="14.7" height="61.8" fill="#1B9E77" fill-opacity="0.45" stroke="white" stroke-width="0.2"/>
<rect x="147.3" y="618.9" width="14.7" height="46.1" fill="#1B9E77" fill-opacity="0.45" stroke="white" stroke-width="0.2"/>
<rect x="162.7" y="640.8" width="14.7" height="24.2" fill="#1B9E77" fill-opacity="0.45" stroke="white" stroke-width="0.2"/>
<rect x="178.2" y="652.9" width="14.7" height="12.1" fill="#1B9E77" fill-opacity="0.45" stroke="white" stroke-width="0.2"/>
<rect x="193.6" y="652.9" width="14.7" height="12.1" fill="#1B9E77" fill-opacity="0.45" stroke="white" stroke-width="0.2"/>
<rect x="209.1" y="652.9" width="14.7" height="12.1" fill="#1B9E77" fill-opacity="0.45" stroke="white" stroke-width="0.2"/>
<rect x="224.5" y="660.2" width="14.7" height="4.8" fill="#1B9E77" fill-opacity="0.45" stroke="white" stroke-width="0.2"/>
<rect x="240.0" y="660.2" width="14.7" height="4.8" fill="#1B9E77" fill-opacity="0.45" stroke="white" stroke-width="0.2"/>
<rect x="255.5" y="663.8" width="14.7" height="1.2" fill="#1B9E77" fill-opacity="0.45" stroke="white" stroke-width="0.2"/>
<rect x="270.9" y="665.0" width="14.7" height="0.0" fill="#1B9E77" fill-opacity="0.45" stroke="white" stroke-width="0.2"/>
<rect x="286.4" y="665.0" width="14.7" height="0.0" fill="#1B9E77" fill-opacity="0.45" stroke="white" stroke-width="0.2"/>
<rect x="301.8" y="665.0" width="14.7" height="0.0" fill="#1B9E77" fill-opacity="0.45" stroke="white" stroke-width="0.2"/>
<rect x="317.3" y="665.0" width="14.7" height="0.0" fill="#1B9E77" fill-opacity="0.45" stroke="white" stroke-width="0.2"/>
<rect x="332.7" y="665.0" width="14.7" height="0.0" fill="#1B9E77" fill-opacity="0.45" stroke="white" stroke-width="0.2"/>
<rect x="348.2" y="665.0" width="14.7" height="0.0" fill="#1B9E77" fill-opacity="0.45" stroke="white" stroke-width="0.2"/>
<rect x="363.6" y="665.0" width="14.7" height="0.0" fill="#1B9E77" fill-opacity="0.45" stroke="white" stroke-width="0.2"/>
<rect x="379.1" y="665.0" width="14.7" height="0.0" fill="#1B9E77" fill-opacity="0.45" stroke="white" stroke-width="0.2"/>
<rect x="394.5" y="665.0" width="14.7" height="0.0" fill="#1B9E77" fill-opacity="0.45" stroke="white" stroke-width="0.2"/>
<rect x="410.0" y="665.0" width="14.7" height="0.0" fill="#1B9E77" fill-opacity="0.45" stroke="white" stroke-width="0.2"/>
<rect x="425.5" y="665.0" width="14.7" height="0.0" fill="#1B9E77" fill-opacity="0.45" stroke="white" stroke-width="0.2"/>
<rect x="440.9" y="665.0" width="14.7" height="0.0" fill="#1B9E77" fill-opacity="0.45" stroke="white" stroke-width="0.2"/>
<rect x="456.4" y="665.0" width="14.7" height="0.0" fill="#1B9E77" fill-opacity="0.45" stroke="white" stroke-width="0.2"/>
<rect x="471.8" y="665.0" width="14.7" height="0.0" fill="#1B9E77" fill-opacity="0.45" stroke="white" stroke-width="0.2"/>
<rect x="487.3" y="665.0" width="14.7" height="0.0" fill="#1B9E77" fill-opacity="0.45" stroke="white" stroke-width="0.2"/>
<rect x="502.7" y="665.0" width="14.7" height="0.0" fill="#1B9E77" fill-opacity="0.45" stroke="white" stroke-width="0.2"/>
<rect x="518.2" y="663.8" width="14.7" height="1.2" fill="#1B9E77" fill-opacity="0.45" stroke="white" stroke-width="0.2"/>
<rect x="533.6" y="665.0" width="14.7" height="0.0" fill="#1B9E77" fill-opacity="0.45" stroke="white" stroke-width="0.2"/>
<rect x="549.1" y="665.0" width="14.7" height="0.0" fill="#1B9E77" fill-opacity="0.45" stroke="white" stroke-width="0.2"/>
<rect x="564.5" y="665.0" width="14.7" height="0.0" fill="#1B9E77" fill-opacity="0.45" stroke="white" stroke-width="0.2"/>
<rect x="580.0" y="665.0" width="14.7" height="0.0" fill="#1B9E77" fill-opacity="0.45" stroke="white" stroke-width="0.2"/>
<rect x="595.5" y="665.0" width="14.7" height="0.0" fill="#1B9E77" fill-opacity="0.45" stroke="white" stroke-width="0.2"/>
<rect x="610.9" y="665.0" width="14.7" height="0.0" fill="#1B9E77" fill-opacity="0.45" stroke="white" stroke-width="0.2"/>
<rect x="626.4" y="665.0" width="14.7" height="0.0" fill="#1B9E77" fill-opacity="0.45" stroke="white" stroke-width="0.2"/>
<rect x="641.8" y="665.0" width="14.7" height="0.0" fill="#1B9E77" fill-opacity="0.45" stroke="white" stroke-width="0.2"/>
<rect x="657.3" y="665.0" width="14.7" height="0.0" fill="#1B9E77" fill-opacity="0.45" stroke="white" stroke-width="0.2"/>
<rect x="672.7" y="665.0" width="14.7" height="0.0" fill="#1B9E77" fill-opacity="0.45" stroke="white" stroke-width="0.2"/>
<rect x="688.2" y="665.0" width="14.7" height="0.0" fill="#1B9E77" fill-opacity="0.45" stroke="white" stroke-width="0.2"/>
<rect x="703.6" y="665.0" width="14.7" height="0.0" fill="#1B9E77" fill-opacity="0.45" stroke="white" stroke-width="0.2"/>
<rect x="719.1" y="665.0" width="14.7" height="0.0" fill="#1B9E77" fill-opacity="0.45" stroke="white" stroke-width="0.2"/>
<rect x="734.5" y="665.0" width="14.7" height="0.0" fill="#1B9E77" fill-opacity="0.45" stroke="white" stroke-width="0.2"/>
<rect x="750.0" y="665.0" width="14.7" height="0.0" fill="#1B9E77" fill-opacity="0.45" stroke="white" stroke-width="0.2"/>
<rect x="765.5" y="665.0" width="14.7" height="0.0" fill="#1B9E77" fill-opacity="0.45" stroke="white" stroke-width="0.2"/>
<rect x="780.9" y="665.0" width="14.7" height="0.0" fill="#1B9E77" fill-opacity="0.45" stroke="white" stroke-width="0.2"/>
<rect x="796.4" y="665.0" width="14.7" height="0.0" fill="#1B9E77" fill-opacity="0.45" stroke="white" stroke-width="0.2"/>
<rect x="811.8" y="665.0" width="14.7" height="0.0" fill="#1B9E77" fill-opacity="0.45" stroke="white" stroke-width="0.2"/>
<rect x="827.3" y="665.0" width="14.7" height="0.0" fill="#1B9E77" fill-opacity="0.45" stroke="white" stroke-width="0.2"/>
<rect x="842.7" y="665.0" width="14.7" height="0.0" fill="#1B9E77" fill-opacity="0.45" stroke="white" stroke-width="0.2"/>
<rect x="858.2" y="665.0" width="14.7" height="0.0" fill="#1B9E77" fill-opacity="0.45" stroke="white" stroke-width="0.2"/>
<rect x="873.6" y="665.0" width="14.7" height="0.0" fill="#1B9E77" fill-opacity="0.45" stroke="white" stroke-width="0.2"/>
<rect x="889.1" y="665.0" width="14.7" height="0.0" fill="#1B9E77" fill-opacity="0.45" stroke="white" stroke-width="0.2"/>
<rect x="904.5" y="665.0" width="14.7" height="0.0" fill="#1B9E77" fill-opacity="0.45" stroke="white" stroke-width="0.2"/>
<text x="70.0" y="680" text-anchor="middle" font-family="Arial" font-size="10">0</text>
<text x="147.3" y="680" text-anchor="middle" font-family="Arial" font-size="10">10</text>
<text x="224.5" y="680" text-anchor="middle" font-family="Arial" font-size="10">20</text>
<text x="379.1" y="680" text-anchor="middle" font-family="Arial" font-size="10">40</text>
<text x="533.6" y="680" text-anchor="middle" font-family="Arial" font-size="10">60</text>
<text x="688.2" y="680" text-anchor="middle" font-family="Arial" font-size="10">80</text>
<text x="842.7" y="680" text-anchor="middle" font-family="Arial" font-size="10">100</text>
<text x="60" y="497" text-anchor="end" font-family="Arial" font-size="10">132</text>
<rect x="760" y="25" width="14" height="14" fill="#1B9E77" fill-opacity="0.45"/><text x="780" y="37" font-family="Arial" font-size="12">JMTES</text>
<rect x="840" y="25" width="14" height="14" fill="#D95F02" fill-opacity="0.45"/><text x="860" y="37" font-family="Arial" font-size="12">JES</text>
<text x="500" y="705" text-anchor="middle" font-family="Arial" font-size="13">Absence percentage</text>
</svg>